<svg xmlns="http://www.w3.org/2000/svg" width="562" height="529" viewBox="0 0 562 529"><defs><style>.cls-1{fill:#68fcf1;}.cls-2{fill:#0b0c10;}.cls-3{fill:#202834;}</style></defs><title>Asset 5</title><g id="Layer_2" data-name="Layer 2"><g id="Layer_1-2" data-name="Layer 1"><rect class="cls-1" width="562" height="529" rx="55.5151"/><rect class="cls-1" y="77.1458" width="562" height="451.8542"/><rect class="cls-2" x="427" y="18.1057" width="98" height="31.4881" rx="15.744"/><ellipse class="cls-3" cx="451" cy="33.8497" rx="14" ry="11.0208"/><ellipse class="cls-3" cx="501" cy="33.8497" rx="14" ry="11.0208"/><path class="cls-3" d="M51.5691,102.5972a4.2817,4.2817,0,0,0,1.7568-.3662,9.741,9.741,0,0,0,1.6426-.9395l2.0234,2.8691a8.6665,8.6665,0,0,1-5.667,2.0079,8.3519,8.3519,0,0,1-4.2177-1.0108,6.8593,6.8593,0,0,1-2.711-2.8115,8.8624,8.8624,0,0,1-.9472-4.1816,9.0362,9.0362,0,0,1,.9687-4.2393,7.2058,7.2058,0,0,1,2.7539-2.92,8.1553,8.1553,0,0,1,4.2393-1.0616,9.23,9.23,0,0,1,3.0918.4805,8.0911,8.0911,0,0,1,2.4892,1.4278l-1.9658,2.7255A6.6658,6.6658,0,0,0,53.39,93.731a5.3994,5.3994,0,0,0-1.793-.3008,3.1183,3.1183,0,0,0-2.4746,1.083,5.5829,5.5829,0,0,0-.9395,3.6514,6.4691,6.4691,0,0,0,.4444,2.6464,2.82,2.82,0,0,0,1.2129,1.377A3.6205,3.6205,0,0,0,51.5691,102.5972Z"/><path class="cls-3" d="M67.3054,89.9438a7.5521,7.5521,0,0,1,4.0019,1.0049,6.545,6.545,0,0,1,2.5254,2.8184,9.7,9.7,0,0,1,.875,4.2539,9.9614,9.9614,0,0,1-.8828,4.3682,6.3954,6.3954,0,0,1-2.5312,2.8046,7.7146,7.7146,0,0,1-3.9883.9747,7.8081,7.8081,0,0,1-3.9814-.961,6.3032,6.3032,0,0,1-2.5391-2.7832,9.9589,9.9589,0,0,1-.8818-4.375,9.6411,9.6411,0,0,1,.8818-4.2461,6.6685,6.6685,0,0,1,2.5391-2.8408A7.4613,7.4613,0,0,1,67.3054,89.9438Zm0,3.3428a2.22,2.22,0,0,0-2.0586,1.1406,7.4556,7.4556,0,0,0-.667,3.6221,7.5293,7.5293,0,0,0,.667,3.6582,2.4369,2.4369,0,0,0,4.1172,0,7.62,7.62,0,0,0,.667-3.6865,7.3816,7.3816,0,0,0-.667-3.6006A2.2248,2.2248,0,0,0,67.3054,93.2866Z"/><path class="cls-3" d="M77.9216,105.6812V90.4468h3.959L82.196,92.21a7.141,7.141,0,0,1,2.1524-1.707,5.7519,5.7519,0,0,1,2.582-.56A4.0086,4.0086,0,0,1,90,91.1353a4.7113,4.7113,0,0,1,1.1192,3.3564v11.19H86.5857V95.7974a6.8132,6.8132,0,0,0-.1289-1.4854,1.3032,1.3032,0,0,0-.4522-.7891,1.4655,1.4655,0,0,0-.8818-.2363,2.1967,2.1967,0,0,0-.9258.208,3.5363,3.5363,0,0,0-.8818.5957,7.3618,7.3618,0,0,0-.86.9326v10.6583Z"/><path class="cls-3" d="M101.2458,102.9272a3.9983,3.9983,0,0,0,1.8291-.3593,1.15,1.15,0,0,0,.6963-1.0752,1.2449,1.2449,0,0,0-.2724-.8184,2.6043,2.6043,0,0,0-1.0479-.6308q-.7749-.3018-2.2949-.7178a11.4109,11.4109,0,0,1-2.46-.9463,4.4746,4.4746,0,0,1-1.664-1.4775,4.0058,4.0058,0,0,1-.5957-2.252,4.0535,4.0535,0,0,1,.7607-2.4248,5.0064,5.0064,0,0,1,2.2373-1.6709,9.4943,9.4943,0,0,1,3.6152-.61,10.8605,10.8605,0,0,1,3.5508.5245,9.9713,9.9713,0,0,1,2.6182,1.3261l-1.8076,2.669a9.2351,9.2351,0,0,0-2.0371-.94,7.1514,7.1514,0,0,0-2.1954-.3505,3.5411,3.5411,0,0,0-1.6425.2939.9488.9488,0,0,0-.5381.8818.91.91,0,0,0,.28.667,3.1394,3.1394,0,0,0,1.0546.5743q.7735.2943,2.2657.7246a14.8591,14.8591,0,0,1,2.5752.9609,4.2456,4.2456,0,0,1,1.7,1.4561,4.2925,4.2925,0,0,1,.6025,2.4023,4.0743,4.0743,0,0,1-.99,2.791,5.9892,5.9892,0,0,1-2.625,1.6856,12.0924,12.0924,0,0,1-7.4883-.0723,9.3028,9.3028,0,0,1-2.8828-1.6641l2.28-2.5537a8.5529,8.5529,0,0,0,2.0157,1.1485A6.4666,6.4666,0,0,0,101.2458,102.9272Z"/><path class="cls-3" d="M126.0632,104.7915a8.9711,8.9711,0,0,1-2.1523.9756,9.3482,9.3482,0,0,1-2.84.4014,5.2062,5.2062,0,0,1-5.8818-5.6807V93.5737H111.99V90.4468h3.1992v-3.3l4.5332-.5449v3.8447h4.9062l-.4443,3.1269h-4.4619v6.9141a2.1524,2.1524,0,0,0,.5166,1.6211,2.343,2.343,0,0,0,1.6494.4883,5.2289,5.2289,0,0,0,1.4707-.1944,5.6019,5.6019,0,0,0,1.1982-.4941Z"/><path class="cls-3" d="M157.4792,90.3462a3.259,3.259,0,0,1,1.2764.2793,2.3622,2.3622,0,0,1,1.1191,1.1553,5.9549,5.9549,0,0,1,.459,2.6679v11.2325h-1.75V94.7935a10.6794,10.6794,0,0,0-.1787-2.3243q-.18-.7177-1.0977-.7177a2.8144,2.8144,0,0,0-1.5283.48,4.839,4.839,0,0,0-1.4267,1.5713v11.878h-1.98V94.7935a10.6641,10.6641,0,0,0-.18-2.3243q-.18-.7177-1.0977-.7177a2.7876,2.7876,0,0,0-1.542.48,4.927,4.927,0,0,0-1.413,1.5713v11.878h-1.7217V90.6187h1.4638l.1,1.8212a6.942,6.942,0,0,1,1.37-1.47,3.02,3.02,0,0,1,1.9443-.624,3.6682,3.6682,0,0,1,1.6709.4082,2.5787,2.5787,0,0,1,1.1982,1.6426,5.556,5.556,0,0,1,1.3487-1.4844A3.2,3.2,0,0,1,157.4792,90.3462Z"/><path class="cls-3" d="M177.1462,90.6187l-5.38,15.1914a15.6945,15.6945,0,0,1-1.205,2.64,6.7785,6.7785,0,0,1-1.9073,2.1162,6.5076,6.5076,0,0,1-3.0986,1.0977l-.3154-1.55a6.9475,6.9475,0,0,0,2.4746-.86A4.2119,4.2119,0,0,0,169.12,107.79a11.4469,11.4469,0,0,0,.9112-2.1084h-.5879l-5.4082-15.0625h1.9219l4.748,13.5419,4.5908-13.5419Z"/><path class="cls-3" d="M188.6648,87.6636v18.0176h-1.8213V87.6636H180.488V85.97h14.5606l-.2012,1.6934Z"/><path class="cls-3" d="M200.8445,98.8667a6.9991,6.9991,0,0,0,.6816,3.1064,4.1916,4.1916,0,0,0,1.6855,1.7862,4.6772,4.6772,0,0,0,2.2813.5732,6.04,6.04,0,0,0,2.1152-.3437,8.9894,8.9894,0,0,0,1.9444-1.0479l.9326,1.334a8.1087,8.1087,0,0,1-2.36,1.248,7.944,7.944,0,0,1-2.56.4454A6.3436,6.3436,0,0,1,202,104.9927a6.237,6.237,0,0,1-2.2744-2.7324,9.9309,9.9309,0,0,1-.789-4.0957,9.6984,9.6984,0,0,1,.8037-4.0606,6.6231,6.6231,0,0,1,2.23-2.7607,5.6524,5.6524,0,0,1,3.3213-.9971,5.4461,5.4461,0,0,1,3.1416.8887,5.6372,5.6372,0,0,1,2.001,2.5185,9.8332,9.8332,0,0,1,.6963,3.88q0,.3867-.0147.6963c-.01.2051-.02.3848-.0283.5371Zm4.49-6.8564a4.0756,4.0756,0,0,0-3.0625,1.291,6.0674,6.0674,0,0,0-1.3984,3.959h8.5634a6.0886,6.0886,0,0,0-1.19-3.9522A3.6912,3.6912,0,0,0,205.3347,92.01Z"/><path class="cls-3" d="M223.2224,104.3325a6.4778,6.4778,0,0,0,2.2314-.373,7.8056,7.8056,0,0,0,1.8575-.961l.9326,1.2051a7.2449,7.2449,0,0,1-2.3672,1.2979,8.0587,8.0587,0,0,1-2.582.4668,6.8977,6.8977,0,0,1-3.7227-.9541,6.0524,6.0524,0,0,1-2.3242-2.7041,9.8363,9.8363,0,0,1-.7959-4.1026,9.7359,9.7359,0,0,1,.7959-4.0166,6.2587,6.2587,0,0,1,6.0615-3.8447,7.9067,7.9067,0,0,1,2.6035.43,7.5615,7.5615,0,0,1,2.2881,1.2773l-.9473,1.2764a8.628,8.628,0,0,0-2.0156-1.0547,6.04,6.04,0,0,0-2.0156-.3506,4.3337,4.3337,0,0,0-3.4356,1.5772,7.0619,7.0619,0,0,0-1.3554,4.706,8.3983,8.3983,0,0,0,.6172,3.4639,4.3675,4.3675,0,0,0,1.6992,2.0088A4.6973,4.6973,0,0,0,223.2224,104.3325Z"/><path class="cls-3" d="M235.7605,84.3491v8.4932a5.5949,5.5949,0,0,1,2.2226-1.8652,6.3171,6.3171,0,0,1,2.6973-.6309,4.0823,4.0823,0,0,1,3.27,1.1758,4.8577,4.8577,0,0,1,1.0049,3.2568v10.9024h-1.7793V94.4634a2.5243,2.5243,0,0,0-.7315-1.9942,3.2822,3.2822,0,0,0-2.2236-.6455,4.1483,4.1483,0,0,0-1.8506.43,6.753,6.753,0,0,0-2.61,2.2813v11.1465h-1.7793V84.5649Z"/><path class="cls-3" d="M253.7634,87.606v7.2158h7.459v1.6787h-7.459v7.5879h9.1953v1.5928H251.9265V85.97h10.7021l-.2441,1.6358Z"/><path class="cls-3" d="M269.2566,105.6812h-2.1094l5.6807-7.962-4.9346-7.1h2.1953l3.8154,5.8388,3.9024-5.8388h2.1377l-5.0069,7.0146,5.666,8.0479h-2.31l-4.461-6.7139Z"/><path class="cls-3" d="M291.8786,90.3462a4.917,4.917,0,0,1,3.2129.9756,5.37,5.37,0,0,1,1.7071,2.7324,14.5693,14.5693,0,0,1,.5166,4.0957,12.0573,12.0573,0,0,1-.6241,4.0313,5.955,5.955,0,0,1-1.9082,2.7753,5.6827,5.6827,0,0,1-7.38-.7812v7.2588l-1.7793.2431V90.6187h1.4628l.2012,2.2236a6.1249,6.1249,0,0,1,1.9727-1.8223A5.1479,5.1479,0,0,1,291.8786,90.3462Zm-.3154,1.52a3.8409,3.8409,0,0,0-2.4531.8389,8.1516,8.1516,0,0,0-1.707,1.7861v7.8037a4.707,4.707,0,0,0,1.6347,1.4922,4.4083,4.4083,0,0,0,2.1807.56,3.4955,3.4955,0,0,0,3.12-1.5352,8.5545,8.5545,0,0,0,1.0254-4.69,12.4221,12.4221,0,0,0-.4014-3.4,4.3185,4.3185,0,0,0-1.2412-2.1231A3.1681,3.1681,0,0,0,291.5632,91.8667Z"/><path class="cls-3" d="M304.1286,98.8667a6.999,6.999,0,0,0,.6817,3.1064,4.1916,4.1916,0,0,0,1.6855,1.7862,4.6769,4.6769,0,0,0,2.2813.5732,6.04,6.04,0,0,0,2.1152-.3437,8.9866,8.9866,0,0,0,1.9443-1.0479l.9327,1.334a8.1087,8.1087,0,0,1-2.36,1.248,7.944,7.944,0,0,1-2.56.4454,6.3433,6.3433,0,0,1-3.5645-.9756A6.237,6.237,0,0,1,303.01,102.26a9.9309,9.9309,0,0,1-.7891-4.0957,9.7,9.7,0,0,1,.8037-4.0606,6.6233,6.6233,0,0,1,2.2305-2.7607,5.6524,5.6524,0,0,1,3.3213-.9971,5.4464,5.4464,0,0,1,3.1416.8887,5.6372,5.6372,0,0,1,2.001,2.5185,9.835,9.835,0,0,1,.6963,3.88q0,.3867-.0147.6963c-.01.2051-.0195.3848-.0283.5371Zm4.49-6.8564a4.0756,4.0756,0,0,0-3.0625,1.291,6.068,6.068,0,0,0-1.3985,3.959h8.5635a6.0891,6.0891,0,0,0-1.19-3.9522A3.6912,3.6912,0,0,0,308.6189,92.01Z"/><path class="cls-3" d="M320.196,105.6812V104.189h2.4531V92.1245H320.196V90.6187h3.8155l.33,3.6152a8.5332,8.5332,0,0,1,2.1309-2.877,5.0483,5.0483,0,0,1,3.35-1.04,5.9079,5.9079,0,0,1,1.0537.0859q.4673.0864.9834.2159l-.5019,1.6777a8.9048,8.9048,0,0,0-.8829-.208,5.2268,5.2268,0,0,0-.8681-.0645,4.2844,4.2844,0,0,0-3.0987,1.2412,9.0465,9.0465,0,0,0-2.08,3.9239v7h3.0986v1.4922Zm9.74-10.3291v-2.94l.1152-1.7929h1.8076l-.2012,4.7334Z"/><path class="cls-3" d="M344.4245,90.6187v13.5136h4.376v1.5489h-10.917v-1.5489h4.7627V92.1675h-4.6191V90.6187Zm-1.6777-6.8145a1.4436,1.4436,0,0,1,1.09.416,1.3941,1.3941,0,0,1,.4014,1.0039,1.4715,1.4715,0,0,1-.4014,1.0547,1.43,1.43,0,0,1-1.09.4238,1.3786,1.3786,0,0,1-1.0478-.4238,1.4715,1.4715,0,0,1-.4014-1.0547,1.3973,1.3973,0,0,1,1.4492-1.42Z"/><path class="cls-3" d="M355.7712,98.8667a6.999,6.999,0,0,0,.6817,3.1064,4.191,4.191,0,0,0,1.6855,1.7862,4.6766,4.6766,0,0,0,2.2813.5732,6.04,6.04,0,0,0,2.1152-.3437,8.9889,8.9889,0,0,0,1.9443-1.0479l.9326,1.334a8.1069,8.1069,0,0,1-2.36,1.248,7.9442,7.9442,0,0,1-2.5606.4454,6.343,6.343,0,0,1-3.5644-.9756,6.2364,6.2364,0,0,1-2.2744-2.7324,9.9309,9.9309,0,0,1-.7891-4.0957,9.7,9.7,0,0,1,.8037-4.0606,6.6233,6.6233,0,0,1,2.2305-2.7607,5.6522,5.6522,0,0,1,3.3213-.9971,5.4464,5.4464,0,0,1,3.1416.8887,5.6372,5.6372,0,0,1,2.001,2.5185,9.8351,9.8351,0,0,1,.6962,3.88q0,.3867-.0146.6963c-.01.2051-.02.3848-.0283.5371Zm4.49-6.8564a4.0756,4.0756,0,0,0-3.0625,1.291,6.068,6.068,0,0,0-1.3985,3.959h8.5635a6.0891,6.0891,0,0,0-1.19-3.9522A3.6912,3.6912,0,0,0,360.2615,92.01Z"/><path class="cls-3" d="M371.6941,105.6812V90.6187h1.4922l.1435,2.1943a5.8348,5.8348,0,0,1,2.3447-1.8213,6.7355,6.7355,0,0,1,2.7188-.6455,4.0712,4.0712,0,0,1,3.292,1.1758,4.9308,4.9308,0,0,1,.9834,3.2568v10.9024h-1.7793V96.687a17.0108,17.0108,0,0,0-.1865-2.7978,2.462,2.462,0,0,0-.8028-1.57,3.0859,3.0859,0,0,0-1.9375-.4951,4.1825,4.1825,0,0,0-1.8857.4375,6.2212,6.2212,0,0,0-1.55,1.0762,6.9473,6.9473,0,0,0-1.0537,1.24v11.1036Z"/><path class="cls-3" d="M395.364,104.3325a6.4778,6.4778,0,0,0,2.2314-.373,7.8056,7.8056,0,0,0,1.8575-.961l.9326,1.2051a7.2449,7.2449,0,0,1-2.3672,1.2979,8.0587,8.0587,0,0,1-2.582.4668,6.8977,6.8977,0,0,1-3.7227-.9541,6.0524,6.0524,0,0,1-2.3242-2.7041,9.8363,9.8363,0,0,1-.7959-4.1026,9.7359,9.7359,0,0,1,.7959-4.0166,6.2587,6.2587,0,0,1,6.0615-3.8447,7.9067,7.9067,0,0,1,2.6035.43,7.5615,7.5615,0,0,1,2.2881,1.2773l-.9473,1.2764a8.628,8.628,0,0,0-2.0156-1.0547,6.04,6.04,0,0,0-2.0156-.3506,4.3337,4.3337,0,0,0-3.4356,1.5772,7.0619,7.0619,0,0,0-1.3554,4.706,8.3983,8.3983,0,0,0,.6172,3.4639,4.3675,4.3675,0,0,0,1.6992,2.0088A4.6973,4.6973,0,0,0,395.364,104.3325Z"/><path class="cls-3" d="M407.4138,98.8667a7,7,0,0,0,.6816,3.1064,4.1912,4.1912,0,0,0,1.6856,1.7862,4.6765,4.6765,0,0,0,2.2812.5732,6.04,6.04,0,0,0,2.1153-.3437,8.9889,8.9889,0,0,0,1.9443-1.0479l.9326,1.334a8.1069,8.1069,0,0,1-2.36,1.248,7.9442,7.9442,0,0,1-2.5606.4454,6.343,6.343,0,0,1-3.5644-.9756,6.2357,6.2357,0,0,1-2.2744-2.7324,9.9309,9.9309,0,0,1-.7891-4.0957,9.7,9.7,0,0,1,.8037-4.0606,6.6233,6.6233,0,0,1,2.2305-2.7607,5.6522,5.6522,0,0,1,3.3213-.9971,5.4466,5.4466,0,0,1,3.1416.8887,5.6363,5.6363,0,0,1,2.0009,2.5185,9.8332,9.8332,0,0,1,.6963,3.88q0,.3867-.0146.6963c-.01.2051-.02.3848-.0283.5371Zm4.49-6.8564a4.0759,4.0759,0,0,0-3.0625,1.291,6.0685,6.0685,0,0,0-1.3984,3.959h8.5635a6.0886,6.0886,0,0,0-1.19-3.9522A3.691,3.691,0,0,0,411.904,92.01Z"/><path class="cls-3" d="M451.324,93.3013v1.6494H440.7087V93.3013Zm0,5.2646V100.23H440.7087V98.5659Z"/><path class="cls-3" d="M477.3611,108.9233V82.356H484.06v1.6777h-5.0215v23.24H484.06v1.6494Z"/><path class="cls-3" d="M99.12,119.4819v15.8653a1.7182,1.7182,0,0,0,.6749,1.5429,3.06,3.06,0,0,0,1.7353.4512,5.5048,5.5048,0,0,0,1.2773-.1435,9.5476,9.5476,0,0,0,1.2051-.3731l.7168,1.9658a8.4267,8.4267,0,0,1-3.7158.8174,4.73,4.73,0,0,1-3.3848-1.19,4.2785,4.2785,0,0,1-1.2627-3.27V121.7192H79.6247v6.6563h7.6172v2.2236H79.6247v8.65H76.7839V119.4819Z"/><path class="cls-3" d="M112.8767,124.1294v10.6445a2.9528,2.9528,0,0,0,.5879,2.0586,2.356,2.356,0,0,0,1.7939.624,4.0108,4.0108,0,0,0,2.209-.6748,5.2355,5.2355,0,0,0,1.6348-1.6064V124.1294h2.7549v15.12H119.49l-.2012-1.9941a5.7056,5.7056,0,0,1-2.166,1.7431,6.1843,6.1843,0,0,1-2.64.6094,4.212,4.212,0,0,1-3.2773-1.19,4.7207,4.7207,0,0,1-1.083-3.3V124.1294Z"/><path class="cls-3" d="M139.6159,138.4751a6.92,6.92,0,0,1-1.9365.8242,8.5782,8.5782,0,0,1-2.2666.3086,5.2845,5.2845,0,0,1-3.8662-1.3193,4.5964,4.5964,0,0,1-1.3408-3.4287v-8.6651h-3.4287v-2.0654h3.4287v-3.4141l2.7539-.33v3.7441h5.1641l-.3155,2.0654H132.96v8.6367a2.5312,2.5312,0,0,0,.6387,1.8789,2.96,2.96,0,0,0,2.13.6309,5.6355,5.6355,0,0,0,1.55-.2,6.9026,6.9026,0,0,0,1.3046-.5166Z"/><path class="cls-3" d="M156.83,138.4751a6.9215,6.9215,0,0,1-1.9365.8242,8.5793,8.5793,0,0,1-2.2666.3086,5.2845,5.2845,0,0,1-3.8662-1.3193A4.596,4.596,0,0,1,147.42,134.86v-8.6651h-3.4288v-2.0654H147.42v-3.4141l2.7539-.33v3.7441h5.164l-.3154,2.0654h-4.8486v8.6367a2.5316,2.5316,0,0,0,.6386,1.8789,2.96,2.96,0,0,0,2.13.6309,5.6343,5.6343,0,0,0,1.55-.2,6.9036,6.9036,0,0,0,1.3047-.5166Z"/><path class="cls-3" d="M163.988,132.6216a6.2061,6.2061,0,0,0,.6738,2.7187,3.7436,3.7436,0,0,0,1.5352,1.55,4.46,4.46,0,0,0,2.0947.4942,6.0517,6.0517,0,0,0,2.08-.3438,8.8681,8.8681,0,0,0,1.9219-1.0039l1.248,1.7354a8.4088,8.4088,0,0,1-2.4531,1.3408,8.5378,8.5378,0,0,1-2.8838.4951,7.0884,7.0884,0,0,1-3.8516-.9971,6.35,6.35,0,0,1-2.41-2.7754,10.6243,10.6243,0,0,1,0-8.206,6.779,6.779,0,0,1,2.331-2.8262,6.1893,6.1893,0,0,1,3.587-1.0322,6.1107,6.1107,0,0,1,3.3642.9033,5.8374,5.8374,0,0,1,2.1729,2.5752,9.5935,9.5935,0,0,1,.7607,3.9951c0,.2588-.0049.5069-.0146.7461s-.0245.4492-.043.6309Zm3.9014-6.6992a3.5023,3.5023,0,0,0-2.6748,1.1474,5.6212,5.6212,0,0,0-1.2266,3.544h7.5166a5.686,5.686,0,0,0-.9971-3.4932A3.1638,3.1638,0,0,0,167.8894,125.9224Z"/><path class="cls-3" d="M179.1218,139.25v-2.0371h2.2949V126.1665h-2.2949v-2.0371h4.4033l.503,3.543a7.7966,7.7966,0,0,1,2.1152-2.8907,5.0431,5.0431,0,0,1,3.2637-1.0107,6.0477,6.0477,0,0,1,1.1689.1006q.51.1,1.04.2578l-.8173,2.41a5.3832,5.3832,0,0,0-1.75-.2588,3.9688,3.9688,0,0,0-2.9268,1.2343,8.72,8.72,0,0,0-1.9512,3.6289v6.0684h3.07V139.25Zm9.9414-9.8125v-3.4717l.3154-1.8359h2.2373l-.43,5.3076Z"/><path class="cls-3" d="M88.4909,158.6587a5.0826,5.0826,0,0,1-.624,2.5684,5.45,5.45,0,0,1-1.6855,1.8144A7.5765,7.5765,0,0,1,83.8,164.11l5.753,8.708H86.1814l-5.2071-8.335H78.5212v8.335H75.6657V153.05H80.93a9.44,9.44,0,0,1,5.6455,1.4131A4.88,4.88,0,0,1,88.4909,158.6587Zm-3.0273,0a3.0918,3.0918,0,0,0-1.0537-2.625,5.3285,5.3285,0,0,0-3.2354-.8037H78.5212v7.0869h2.6826a5.1392,5.1392,0,0,0,3.1485-.8389A3.3094,3.3094,0,0,0,85.4636,158.6587Z"/><path class="cls-3" d="M95.1325,166.19a6.2048,6.2048,0,0,0,.6739,2.7188,3.7451,3.7451,0,0,0,1.5351,1.55,4.46,4.46,0,0,0,2.0948.4941,6.0516,6.0516,0,0,0,2.08-.3437,8.8725,8.8725,0,0,0,1.9219-1.0039l1.2481,1.7353a8.4072,8.4072,0,0,1-2.4532,1.3409,8.54,8.54,0,0,1-2.8838.4951,7.0887,7.0887,0,0,1-3.8515-.9971,6.35,6.35,0,0,1-2.41-2.7754,10.6243,10.6243,0,0,1,0-8.206,6.778,6.778,0,0,1,2.3311-2.8262,6.1892,6.1892,0,0,1,3.5869-1.0322,6.1094,6.1094,0,0,1,3.3642.9033,5.835,5.835,0,0,1,2.1729,2.5752,9.5931,9.5931,0,0,1,.7607,3.9951c0,.2588-.0048.5068-.0146.7461s-.0244.4492-.043.6308Zm3.9014-6.6992a3.5021,3.5021,0,0,0-2.6748,1.1475,5.6211,5.6211,0,0,0-1.2266,3.5439h7.5166a5.6865,5.6865,0,0,0-.997-3.4931A3.1639,3.1639,0,0,0,99.0339,159.4907Z"/><path class="cls-3" d="M121.2693,169.3462a2.3306,2.3306,0,0,0,.2861,1.3125,1.7093,1.7093,0,0,0,.9043.61l-.6455,1.8936a4.2616,4.2616,0,0,1-1.793-.6172,2.896,2.896,0,0,1-1.1338-1.4922,5.1668,5.1668,0,0,1-2.0654,1.585,6.7658,6.7658,0,0,1-2.7119.5381,4.9251,4.9251,0,0,1-3.6006-1.291,4.5411,4.5411,0,0,1-1.3193-3.3995,4.1315,4.1315,0,0,1,1.8437-3.63,9.3476,9.3476,0,0,1,5.3-1.2618h2.1953v-1.1484a2.5435,2.5435,0,0,0-.9258-2.2236,4.3733,4.3733,0,0,0-2.5742-.6592,10.2571,10.2571,0,0,0-1.7793.1865,14.77,14.77,0,0,0-2.1943.5879l-.7031-2.0088a15.2807,15.2807,0,0,1,2.6894-.76,13.6691,13.6691,0,0,1,2.4033-.2294,6.2922,6.2922,0,0,1,4.375,1.3271,4.6855,4.6855,0,0,1,1.4493,3.6357Zm-6.3838,1.7646a4.1222,4.1222,0,0,0,2.0371-.5449,4.5207,4.5207,0,0,0,1.6064-1.52v-3.6582H116.52a5.4911,5.4911,0,0,0-3.3994.8106,2.6926,2.6926,0,0,0-1.0039,2.2158,2.7221,2.7221,0,0,0,.6885,2.0088A2.8275,2.8275,0,0,0,114.8855,171.1108Z"/><path class="cls-3" d="M134.3659,170.853a5.62,5.62,0,0,0,2.0586-.373,8.7788,8.7788,0,0,0,1.7862-.9473l1.3193,1.793a7.5615,7.5615,0,0,1-2.3955,1.3486,8.3085,8.3085,0,0,1-2.8115.502,7.3956,7.3956,0,0,1-3.8955-.9756,6.3175,6.3175,0,0,1-2.46-2.7393,10.3948,10.3948,0,0,1,.0068-8.2343,6.7139,6.7139,0,0,1,2.4747-2.8477,7.1022,7.1022,0,0,1,3.9169-1.04,8.2873,8.2873,0,0,1,2.7754.4521,7.8532,7.8532,0,0,1,2.36,1.3262l-1.3057,1.7939a8.0837,8.0837,0,0,0-1.88-.9834,5.7328,5.7328,0,0,0-1.9365-.3369,3.8961,3.8961,0,0,0-3.0986,1.4063,6.5468,6.5468,0,0,0-1.2051,4.332,7.7415,7.7415,0,0,0,.5527,3.17,3.7807,3.7807,0,0,0,1.5274,1.7861A4.3159,4.3159,0,0,0,134.3659,170.853Z"/><path class="cls-3" d="M156.83,172.0435a6.9215,6.9215,0,0,1-1.9365.8242,8.5834,8.5834,0,0,1-2.2666.3086,5.2846,5.2846,0,0,1-3.8662-1.3194,4.5957,4.5957,0,0,1-1.3408-3.4287v-8.665h-3.4288v-2.0654H147.42v-3.4141l2.7539-.33v3.7442h5.164l-.3154,2.0654h-4.8486V168.4a2.5319,2.5319,0,0,0,.6386,1.8789,2.96,2.96,0,0,0,2.13.6309,5.6343,5.6343,0,0,0,1.55-.2,6.91,6.91,0,0,0,1.3047-.5166Z"/><path class="cls-3" d="M181.9333,162.7759a19.4082,19.4082,0,0,0,.416,4.2324,12.9578,12.9578,0,0,0,1.2188,3.335,13.8606,13.8606,0,0,0,1.9873,2.7754,27.7632,27.7632,0,0,0,2.7187,2.5683l-.8613,1.0039a30.1635,30.1635,0,0,1-3.9951-3.8369,14.0462,14.0462,0,0,1-2.5322-4.3613,19.1576,19.1576,0,0,1,0-11.4473,14.0462,14.0462,0,0,1,2.5322-4.3613,29.5643,29.5643,0,0,1,3.9951-3.8233l.8613,1.0039a29.5514,29.5514,0,0,0-2.7685,2.6114,13.6614,13.6614,0,0,0-1.9873,2.7617,12.3609,12.3609,0,0,0-1.19,3.3066A20.2378,20.2378,0,0,0,181.9333,162.7759Z"/><path class="cls-3" d="M207.2663,172.8179h-2.94l-2.1523-11.333-2.3379,11.333h-2.8545l-2.9121-15.0625h1.9648l2.209,13.9726,2.6543-12.0508h2.5674L205.99,171.728l2.1943-13.9726H210.05Z"/><path class="cls-3" d="M220.9656,157.7554V171.269h4.3759v1.5489h-10.917V171.269h4.7627V159.3042h-4.6191v-1.5488Zm-1.6778-6.8145a1.444,1.444,0,0,1,1.09.416,1.3944,1.3944,0,0,1,.4013,1.0039,1.4718,1.4718,0,0,1-.4013,1.0547,1.43,1.43,0,0,1-1.09.4239,1.3785,1.3785,0,0,1-1.0478-.4239,1.4715,1.4715,0,0,1-.4014-1.0547,1.3973,1.3973,0,0,1,1.4492-1.42Z"/><path class="cls-3" d="M242.5124,172.1011a5.782,5.782,0,0,1-1.8076.7451,8.328,8.328,0,0,1-1.9658.2588,4.9883,4.9883,0,0,1-3.5508-1.2051,3.9784,3.9784,0,0,1-1.2832-3.0273v-9.625h-3.5576v-1.4922h3.5576v-3.4717l1.7783-.2149v3.6866h5.3076l-.2431,1.4922h-5.0645v9.582a2.7282,2.7282,0,0,0,.71,2.0156,3.3007,3.3007,0,0,0,2.3887.71,6.0071,6.0071,0,0,0,1.5927-.2,6.8,6.8,0,0,0,1.3623-.5313Z"/><path class="cls-3" d="M250.0144,151.4858v8.4932a5.5957,5.5957,0,0,1,2.2226-1.8652,6.3175,6.3175,0,0,1,2.6973-.6309,4.0823,4.0823,0,0,1,3.27,1.1758,4.8577,4.8577,0,0,1,1.0049,3.2568v10.9024H257.43V161.6a2.5239,2.5239,0,0,0-.7314-1.9941,3.2822,3.2822,0,0,0-2.2237-.6456,4.1483,4.1483,0,0,0-1.8506.43,6.753,6.753,0,0,0-2.61,2.2813v11.1465h-1.7793V151.7017Z"/><path class="cls-3" d="M294.7419,158.4868a4.9456,4.9456,0,0,1-.6748,2.6182,5.4321,5.4321,0,0,1-1.8213,1.8213,7.9912,7.9912,0,0,1-2.582,1.0117l6.0537,8.88h-2.2959l-5.709-8.7364h-3.07v8.7364h-1.8359v-19.711h4.72a8.8715,8.8715,0,0,1,5.38,1.378A4.6954,4.6954,0,0,1,294.7419,158.4868Zm-2.0224,0a3.4244,3.4244,0,0,0-1.17-2.9189,6.0721,6.0721,0,0,0-3.65-.8828h-3.2568v7.8183h3.1992a6.1341,6.1341,0,0,0,3.5938-.9111A3.5455,3.5455,0,0,0,292.72,158.4868Z"/><path class="cls-3" d="M301.1677,166.0034a7.0013,7.0013,0,0,0,.6816,3.1065,4.1915,4.1915,0,0,0,1.6856,1.7861,4.6765,4.6765,0,0,0,2.2812.5732,6.04,6.04,0,0,0,2.1153-.3437,8.9889,8.9889,0,0,0,1.9443-1.0479l.9326,1.334a8.1072,8.1072,0,0,1-2.36,1.2481,7.9467,7.9467,0,0,1-2.5606.4453,6.343,6.343,0,0,1-3.5644-.9756,6.2357,6.2357,0,0,1-2.2744-2.7324,9.9306,9.9306,0,0,1-.7891-4.0957,9.7,9.7,0,0,1,.8037-4.0606,6.6233,6.6233,0,0,1,2.2305-2.7607,5.6522,5.6522,0,0,1,3.3213-.9971,5.4464,5.4464,0,0,1,3.1416.8887,5.6363,5.6363,0,0,1,2.0009,2.5185,9.8332,9.8332,0,0,1,.6963,3.88c0,.2578-.0048.49-.0146.6963s-.02.3848-.0283.5371Zm4.49-6.8564a4.0763,4.0763,0,0,0-3.0625,1.291,6.0687,6.0687,0,0,0-1.3984,3.959h8.5635a6.0886,6.0886,0,0,0-1.19-3.9522A3.691,3.691,0,0,0,305.6579,159.147Z"/><path class="cls-3" d="M326.2429,151.4146l1.7793.2441v21.1592h-1.55l-.2295-2.08a5.3776,5.3776,0,0,1-2.0156,1.8291,5.5967,5.5967,0,0,1-5.5655-.4443,5.7312,5.7312,0,0,1-1.9013-2.74,12.2182,12.2182,0,0,1-.6162-4.0527,10.9361,10.9361,0,0,1,.6953-4.0234,6.4333,6.4333,0,0,1,2.0088-2.7979,5.0027,5.0027,0,0,1,3.1767-1.0254,5.6621,5.6621,0,0,1,2.41.4805,5.17,5.17,0,0,1,1.8076,1.4131Zm-3.7725,7.6025a3.6749,3.6749,0,0,0-3.206,1.5859,8.2016,8.2016,0,0,0-1.1123,4.7119,11.0563,11.0563,0,0,0,.4521,3.3789,4.4322,4.4322,0,0,0,1.3408,2.13,3.3807,3.3807,0,0,0,2.2237.7315,3.7552,3.7552,0,0,0,2.4316-.8028,8.02,8.02,0,0,0,1.6426-1.7646v-7.833a4.7427,4.7427,0,0,0-1.6426-1.5781A4.2322,4.2322,0,0,0,322.47,159.0171Z"/><path class="cls-3" d="M336.0837,157.7554v10.7734a3.3878,3.3878,0,0,0,.6807,2.3457,2.81,2.81,0,0,0,2.1592.7383,4.7843,4.7843,0,0,0,2.64-.7959,6.1536,6.1536,0,0,0,1.8936-1.8291V157.7554h1.7793v15.0625h-1.4922l-.2012-2.1084a6.2611,6.2611,0,0,1-2.2373,1.7715,6.13,6.13,0,0,1-2.64.624,4.324,4.324,0,0,1-3.2714-1.1406,4.4767,4.4767,0,0,1-1.09-3.2207V157.7554Z"/><path class="cls-3" d="M352.365,172.8179h-2.1094l5.6807-7.9619-4.9346-7.1006h2.1953l3.8154,5.8388,3.9024-5.8388h2.1377l-5.0069,7.0146,5.666,8.0479h-2.3095l-4.461-6.7139Z"/><path class="cls-3" d="M377.11,162.7759a20.3127,20.3127,0,0,0-.3945-4.2315,12.3955,12.3955,0,0,0-1.19-3.3066,13.6614,13.6614,0,0,0-1.9873-2.7617,29.7894,29.7894,0,0,0-2.7685-2.6114l.86-1.0039a28.8013,28.8013,0,0,1,4.0029,3.8233,14.1,14.1,0,0,1,2.5245,4.3613,19.1576,19.1576,0,0,1,0,11.4473,14.1,14.1,0,0,1-2.5245,4.3613,29.37,29.37,0,0,1-4.0029,3.8369l-.86-1.0039a27.7518,27.7518,0,0,0,2.7187-2.5683,13.8157,13.8157,0,0,0,1.9863-2.7754,12.922,12.922,0,0,0,1.22-3.335A19.4082,19.4082,0,0,0,377.11,162.7759Z"/><path class="cls-3" d="M391.4118,168.4565a2.0461,2.0461,0,0,1,2.08,2.0518,5.8665,5.8665,0,0,1-.0644.8535,2.9911,2.9911,0,0,1-.294.8965l-2.3965,5.5088h-1.9218l1.3486-5.5371a2.1264,2.1264,0,0,1-.5811-.7461,2.2052,2.2052,0,0,1-.2226-.9756,2.0029,2.0029,0,0,1,.5879-1.4492A1.9643,1.9643,0,0,1,391.4118,168.4565Z"/><path class="cls-3" d="M85.0769,206.3862v-9.21H78.0476v9.21H75.2068V186.6187h2.8408v8.22h7.0293v-8.22h2.84v19.7675Z"/><path class="cls-3" d="M100.1531,188.9849v17.4013H97.3122V188.9849H91.23v-2.3662h15.1055l-.3008,2.3662Z"/><path class="cls-3" d="M122.6609,186.6187l1.1181,19.7675h-2.6679l-.56-10.0273q-.0425-1.062-.0713-2.1162t-.0361-2.0156q-.0074-.9611,0-1.75t.0215-1.3057l-3.1563,13.7h-2.668l-3.3857-13.7q.0292.5024.0508,1.32t.0283,1.8076q.0074.9888-.0068,2.0371t-.043,2.0225l-.4736,10.0273H108.2l1.1192-19.7675h3.6865l3.042,13.4121,2.8974-13.4121Z"/><path class="cls-3" d="M128.2829,206.3862V186.6187h2.8555v17.3H140.09l-.3155,2.4677Z"/><path class="cls-3" d="M167.029,186.2886a7.4754,7.4754,0,0,1,2.5537.43,6.1358,6.1358,0,0,1,2.3663,1.7216l-1.6065,1.4493a5.0519,5.0519,0,0,0-1.4629-1.1983,3.9169,3.9169,0,0,0-1.793-.38,2.78,2.78,0,0,0-2.1445.7823,2.8429,2.8429,0,0,0-.7246,2.0146,2.98,2.98,0,0,0,.4443,1.5781,3.289,3.289,0,0,0,1.22,1.17,3.4446,3.4446,0,0,0,1.7207.4375h7.8906v2.0507H173.04v7.7608a7.4967,7.4967,0,0,1-1.2266,1.1767,6.8938,6.8938,0,0,1-1.9726,1.04,8.6013,8.6013,0,0,1-2.8692.4228,7.094,7.094,0,0,1-3.6719-.8535,5.3953,5.3953,0,0,1-2.124-2.2158,6.313,6.313,0,0,1-.6885-2.8838,5.1847,5.1847,0,0,1,4.4766-5.5088v-.0859a4.8449,4.8449,0,0,1-2.0156-.9326,3.7058,3.7058,0,0,1-1.0908-1.4707,4.7035,4.7035,0,0,1-.337-1.7715,4.3357,4.3357,0,0,1,.6739-2.3594,4.9027,4.9027,0,0,1,1.916-1.7217A6.188,6.188,0,0,1,167.029,186.2886Zm3.5,10.0556h-3.2558a3.8413,3.8413,0,0,0-2.3389.667,3.9811,3.9811,0,0,0-1.3271,1.6573,5.03,5.03,0,0,0-.4229,1.9941,4.5626,4.5626,0,0,0,.4092,1.915,3.3613,3.3613,0,0,0,1.2617,1.4493,4.0184,4.0184,0,0,0,2.2168.5517,5.1959,5.1959,0,0,0,2.0156-.373,3.638,3.638,0,0,0,1.4414-1.0323Z"/><path class="cls-3" d="M203.7234,186.2593a9.512,9.512,0,0,1,3.3066.5019,8.9153,8.9153,0,0,1,2.5176,1.4639l-1.5352,1.8076a6.1953,6.1953,0,0,0-1.9433-1.1123,6.6645,6.6645,0,0,0-2.1739-.3516,5.6866,5.6866,0,0,0-2.8759.7608,5.3327,5.3327,0,0,0-2.1309,2.4961,11.2575,11.2575,0,0,0-.8027,4.6621,11.44,11.44,0,0,0,.7675,4.583,5.2906,5.2906,0,0,0,2.08,2.5107,5.62,5.62,0,0,0,2.9336.7823,6.185,6.185,0,0,0,2.69-.51,9.1811,9.1811,0,0,0,1.8574-1.1689l1.4209,1.8222a8.3484,8.3484,0,0,1-2.418,1.57,8.8021,8.8021,0,0,1-3.622.667,8.4348,8.4348,0,0,1-4.418-1.1758,8.1373,8.1373,0,0,1-3.1055-3.4648,12.5,12.5,0,0,1-1.1406-5.6162,12.205,12.205,0,0,1,1.1689-5.6094,8.3032,8.3032,0,0,1,3.127-3.4492A8.2191,8.2191,0,0,1,203.7234,186.2593Z"/><path class="cls-3" d="M226.2019,200.8628a5.4392,5.4392,0,0,1-.8682,3.0488,5.791,5.791,0,0,1-2.5029,2.08,9.5014,9.5014,0,0,1-3.9883.7529,11.1429,11.1429,0,0,1-4.0449-.6884,8.9362,8.9362,0,0,1-3.0274-1.8936l1.6211-1.8213a7.6514,7.6514,0,0,0,5.4805,2.08,5.9946,5.9946,0,0,0,2.1582-.3809,3.673,3.673,0,0,0,1.6074-1.1474,3.0054,3.0054,0,0,0,.6094-1.93,2.7681,2.7681,0,0,0-1.6494-2.7256,13.5979,13.5979,0,0,0-2.5684-.9893,20.0451,20.0451,0,0,1-3.4355-1.3418,5.8932,5.8932,0,0,1-2.1807-1.8144,4.8667,4.8667,0,0,1,.0938-5.3438,5.6153,5.6153,0,0,1,2.331-1.8291,8.28,8.28,0,0,1,3.3926-.66,10.1644,10.1644,0,0,1,3.6367.5957,8.976,8.976,0,0,1,2.8037,1.7138l-1.5771,1.7793a6.7,6.7,0,0,0-2.2666-1.3554,7.48,7.48,0,0,0-2.4678-.4239,5.6411,5.6411,0,0,0-1.9082.3086,3.1422,3.1422,0,0,0-1.37.9112,2.2975,2.2975,0,0,0-.5088,1.5351,2.2372,2.2372,0,0,0,.4443,1.3985,3.9938,3.9938,0,0,0,1.5069,1.0761,21.9451,21.9451,0,0,0,2.8828,1.04,15.638,15.638,0,0,1,2.9121,1.1474A5.624,5.624,0,0,1,225.42,197.83,5.3148,5.3148,0,0,1,226.2019,200.8628Z"/><path class="cls-3" d="M243.4157,200.8628a5.4392,5.4392,0,0,1-.8681,3.0488,5.791,5.791,0,0,1-2.5029,2.08,9.502,9.502,0,0,1-3.9883.7529,11.1425,11.1425,0,0,1-4.0449-.6884,8.9343,8.9343,0,0,1-3.0274-1.8936l1.6211-1.8213a7.6514,7.6514,0,0,0,5.4805,2.08,5.9946,5.9946,0,0,0,2.1582-.3809,3.673,3.673,0,0,0,1.6074-1.1474,3.0059,3.0059,0,0,0,.6094-1.93,2.7681,2.7681,0,0,0-1.6494-2.7256,13.5979,13.5979,0,0,0-2.5684-.9893,20.0432,20.0432,0,0,1-3.4356-1.3418,5.8928,5.8928,0,0,1-2.1806-1.8144,4.8669,4.8669,0,0,1,.0937-5.3438,5.6162,5.6162,0,0,1,2.3311-1.8291,8.28,8.28,0,0,1,3.3926-.66,10.1644,10.1644,0,0,1,3.6367.5957,8.976,8.976,0,0,1,2.8037,1.7138l-1.5772,1.7793a6.7,6.7,0,0,0-2.2666-1.3554,7.4791,7.4791,0,0,0-2.4677-.4239,5.6406,5.6406,0,0,0-1.9082.3086,3.1416,3.1416,0,0,0-1.37.9112,2.2975,2.2975,0,0,0-.5088,1.5351,2.2372,2.2372,0,0,0,.4443,1.3985,3.9934,3.9934,0,0,0,1.5068,1.0761,21.9559,21.9559,0,0,0,2.8828,1.04,15.6362,15.6362,0,0,1,2.9122,1.1474,5.6245,5.6245,0,0,1,2.1015,1.8438A5.314,5.314,0,0,1,243.4157,200.8628Z"/><path class="cls-3" d="M268.0027,196.3442a19.403,19.403,0,0,0,.416,4.2325,12.9556,12.9556,0,0,0,1.2187,3.3349,13.8629,13.8629,0,0,0,1.9873,2.7754,27.7539,27.7539,0,0,0,2.7188,2.5684l-.8613,1.0039a30.1647,30.1647,0,0,1-3.9952-3.8369,14.0455,14.0455,0,0,1-2.5322-4.3614,19.1572,19.1572,0,0,1,0-11.4472,14.0455,14.0455,0,0,1,2.5322-4.3614,29.5589,29.5589,0,0,1,3.9952-3.8232l.8613,1.0039a29.5535,29.5535,0,0,0-2.7686,2.6113,13.6726,13.6726,0,0,0-1.9873,2.7618,12.36,12.36,0,0,0-1.19,3.3066A20.2373,20.2373,0,0,0,268.0027,196.3442Z"/><path class="cls-3" d="M285.2312,188.311v7.2159h7.459v1.6787h-7.459v7.5879h9.1953v1.5927H283.3943V186.6753h10.7021l-.2441,1.6357Z"/><path class="cls-3" d="M309.445,191.0513a3.2569,3.2569,0,0,1,1.2764.2793,2.363,2.363,0,0,1,1.1192,1.1552,5.957,5.957,0,0,1,.4589,2.668v11.2324h-1.75V195.4985a10.6712,10.6712,0,0,0-.1787-2.3242q-.18-.7177-1.0976-.7178a2.8149,2.8149,0,0,0-1.5284.4805,4.8379,4.8379,0,0,0-1.4267,1.5713v11.8779h-1.98V195.4985a10.656,10.656,0,0,0-.18-2.3242q-.18-.7177-1.0976-.7178a2.7874,2.7874,0,0,0-1.542.4805,4.9249,4.9249,0,0,0-1.4131,1.5713v11.8779h-1.7217V191.3237h1.4639l.1,1.8213a6.9422,6.9422,0,0,1,1.37-1.47,3.02,3.02,0,0,1,1.9443-.624,3.6679,3.6679,0,0,1,1.6709.4082,2.5785,2.5785,0,0,1,1.1983,1.6426,5.5557,5.5557,0,0,1,1.3486-1.4844A3.1994,3.1994,0,0,1,309.445,191.0513Z"/><path class="cls-3" d="M322.5993,191.0513a5.8716,5.8716,0,0,1,3.4424.9609,5.7379,5.7379,0,0,1,2.0586,2.7109,11.372,11.372,0,0,1,.6817,4.1319,10.7327,10.7327,0,0,1-.7032,4.0019,6.2589,6.2589,0,0,1-2.0869,2.79,5.6073,5.6073,0,0,1-3.4355,1.0263,5.8173,5.8173,0,0,1-3.45-.9824,5.9416,5.9416,0,0,1-2.08-2.74,12.1917,12.1917,0,0,1,.0068-8.1416,6.04,6.04,0,0,1,2.1016-2.7608A5.8158,5.8158,0,0,1,322.5993,191.0513Zm0,1.5634a3.707,3.707,0,0,0-3.2207,1.5352,10.7127,10.7127,0,0,0-.0214,9.4033,4.09,4.09,0,0,0,6.3984,0,10.8482,10.8482,0,0,0,.0068-9.4033A3.6047,3.6047,0,0,0,322.5993,192.6147Z"/><path class="cls-3" d="M345.7956,205.6694a5.7821,5.7821,0,0,1-1.8076.7452,8.3276,8.3276,0,0,1-1.9658.2587,4.9884,4.9884,0,0,1-3.5508-1.205,3.9785,3.9785,0,0,1-1.2832-3.0274v-9.625h-3.5576v-1.4922h3.5576v-3.4716l1.7783-.2149v3.6865h5.3076l-.2431,1.4922h-5.0645v9.582a2.7286,2.7286,0,0,0,.71,2.0157,3.3007,3.3007,0,0,0,2.3887.71,6.0071,6.0071,0,0,0,1.5927-.2,6.794,6.794,0,0,0,1.3623-.5312Z"/><path class="cls-3" d="M358.6765,191.3237v13.5137h4.376v1.5488h-10.917v-1.5488h4.7627V192.8726H352.279v-1.5489Zm-1.6777-6.8144a1.4435,1.4435,0,0,1,1.09.416,1.3939,1.3939,0,0,1,.4014,1.0039,1.4715,1.4715,0,0,1-.4014,1.0547,1.4307,1.4307,0,0,1-1.09.4238,1.379,1.379,0,0,1-1.0479-.4238,1.4715,1.4715,0,0,1-.4014-1.0547,1.3973,1.3973,0,0,1,1.4493-1.42Z"/><path class="cls-3" d="M374.2409,191.0513a5.8716,5.8716,0,0,1,3.4424.9609,5.7379,5.7379,0,0,1,2.0586,2.7109,11.372,11.372,0,0,1,.6817,4.1319,10.7327,10.7327,0,0,1-.7032,4.0019,6.2589,6.2589,0,0,1-2.0869,2.79,5.6073,5.6073,0,0,1-3.4355,1.0263,5.8173,5.8173,0,0,1-3.45-.9824,5.9416,5.9416,0,0,1-2.08-2.74,12.1917,12.1917,0,0,1,.0068-8.1416,6.04,6.04,0,0,1,2.1016-2.7608A5.8158,5.8158,0,0,1,374.2409,191.0513Zm0,1.5634A3.707,3.707,0,0,0,371.02,194.15a10.7127,10.7127,0,0,0-.0214,9.4033,4.09,4.09,0,0,0,6.3984,0,10.8482,10.8482,0,0,0,.0068-9.4033A3.6047,3.6047,0,0,0,374.2409,192.6147Z"/><path class="cls-3" d="M385.946,206.3862V191.3237h1.4922l.1436,2.1944a5.8342,5.8342,0,0,1,2.3447-1.8213,6.7351,6.7351,0,0,1,2.7187-.6455,4.0711,4.0711,0,0,1,3.292,1.1758,4.9306,4.9306,0,0,1,.9834,3.2568v10.9023h-1.7793v-8.9941a17.013,17.013,0,0,0-.1865-2.7979,2.4616,2.4616,0,0,0-.8027-1.57,3.0853,3.0853,0,0,0-1.9375-.4951,4.1826,4.1826,0,0,0-1.8858.4375,6.223,6.223,0,0,0-1.55,1.0762,6.948,6.948,0,0,0-1.0537,1.24v11.1035Z"/><path class="cls-3" d="M411.5378,196.3442a20.3049,20.3049,0,0,0-.3945-4.2314,12.3976,12.3976,0,0,0-1.19-3.3066,13.6726,13.6726,0,0,0-1.9873-2.7618,29.8042,29.8042,0,0,0-2.7686-2.6113l.86-1.0039a28.7962,28.7962,0,0,1,4.003,3.8232,14.1012,14.1012,0,0,1,2.5244,4.3614,19.1572,19.1572,0,0,1,0,11.4472,14.1012,14.1012,0,0,1-2.5244,4.3614,29.3709,29.3709,0,0,1-4.003,3.8369l-.86-1.0039a27.7523,27.7523,0,0,0,2.7187-2.5684,13.8145,13.8145,0,0,0,1.9864-2.7754,12.92,12.92,0,0,0,1.22-3.3349A19.4091,19.4091,0,0,0,411.5378,196.3442Z"/><path class="cls-3" d="M425.84,202.0249a2.0459,2.0459,0,0,1,2.08,2.0518,5.8529,5.8529,0,0,1-.0645.8535,2.9936,2.9936,0,0,1-.2939.8965l-2.3965,5.5087h-1.9219l1.3486-5.5371a2.1262,2.1262,0,0,1-.581-.7461,2.2032,2.2032,0,0,1-.2227-.9755,2.0033,2.0033,0,0,1,.5879-1.4493A1.9646,1.9646,0,0,1,425.84,202.0249Z"/><path class="cls-3" d="M87.3435,220.187v13.1113a9.3586,9.3586,0,0,1-.3584,2.5752,6.26,6.26,0,0,1-1.17,2.252,5.6339,5.6339,0,0,1-2.1368,1.5849,8.08,8.08,0,0,1-3.2783.5889,9.1575,9.1575,0,0,1-2.9267-.4668,9.5752,9.5752,0,0,1-2.5967-1.3408l1.22-1.8506a8.59,8.59,0,0,0,2.2813,1.0684,7.4737,7.4737,0,0,0,1.9511.28,3.8473,3.8473,0,0,0,3.0762-1.27,5.2287,5.2287,0,0,0,1.0977-3.5361V222.439H78.6072v-2.252Z"/><path class="cls-3" d="M104.0554,236.4829a2.3306,2.3306,0,0,0,.2861,1.3125,1.71,1.71,0,0,0,.9043.61l-.6455,1.8935a4.2616,4.2616,0,0,1-1.793-.6172,2.8949,2.8949,0,0,1-1.1337-1.4922,5.1671,5.1671,0,0,1-2.0655,1.585,6.7658,6.7658,0,0,1-2.7119.5381,4.9251,4.9251,0,0,1-3.6006-1.291,4.541,4.541,0,0,1-1.3193-3.3994,4.1317,4.1317,0,0,1,1.8437-3.63,9.3489,9.3489,0,0,1,5.3-1.2617h2.1954v-1.1485a2.5435,2.5435,0,0,0-.9258-2.2236,4.3733,4.3733,0,0,0-2.5742-.6592,10.2551,10.2551,0,0,0-1.7793.1865,14.78,14.78,0,0,0-2.1944.5879l-.7031-2.0088a15.27,15.27,0,0,1,2.6895-.76,13.6584,13.6584,0,0,1,2.4033-.23,6.2927,6.2927,0,0,1,4.375,1.3271,4.6859,4.6859,0,0,1,1.4492,3.6358Zm-6.3838,1.7647a4.1223,4.1223,0,0,0,2.0371-.545,4.52,4.52,0,0,0,1.6065-1.52v-3.6582H99.3064a5.4907,5.4907,0,0,0-3.3994.8106,2.6923,2.6923,0,0,0-1.0039,2.2158,2.7221,2.7221,0,0,0,.6884,2.0088A2.8273,2.8273,0,0,0,97.6716,238.2476Z"/><path class="cls-3" d="M123.0046,224.8345l-5.4228,15.12h-3.2129l-5.3936-15.12h2.9258l4.1465,12.7246,4.1308-12.7246Z"/><path class="cls-3" d="M138.4831,236.4829a2.3305,2.3305,0,0,0,.2862,1.3125,1.71,1.71,0,0,0,.9043.61l-.6455,1.8935a4.2611,4.2611,0,0,1-1.793-.6172,2.8951,2.8951,0,0,1-1.1338-1.4922,5.1668,5.1668,0,0,1-2.0654,1.585,6.7664,6.7664,0,0,1-2.7119.5381,4.9247,4.9247,0,0,1-3.6006-1.291,4.5411,4.5411,0,0,1-1.3194-3.3994,4.1316,4.1316,0,0,1,1.8438-3.63,9.3484,9.3484,0,0,1,5.3-1.2617h2.1953v-1.1485a2.5435,2.5435,0,0,0-.9258-2.2236,4.3733,4.3733,0,0,0-2.5742-.6592,10.2561,10.2561,0,0,0-1.7793.1865,14.7794,14.7794,0,0,0-2.1943.5879l-.7032-2.0088a15.2723,15.2723,0,0,1,2.6895-.76,13.6593,13.6593,0,0,1,2.4033-.23,6.2927,6.2927,0,0,1,4.375,1.3271,4.6859,4.6859,0,0,1,1.4492,3.6358Zm-6.3838,1.7647a4.1224,4.1224,0,0,0,2.0372-.545,4.5206,4.5206,0,0,0,1.6064-1.52v-3.6582h-2.0088a5.4907,5.4907,0,0,0-3.3994.8106,2.6926,2.6926,0,0,0-1.0039,2.2158,2.7221,2.7221,0,0,0,.6885,2.0088A2.8268,2.8268,0,0,0,132.0993,238.2476Z"/><path class="cls-3" d="M157.3464,234.4312a5.44,5.44,0,0,1-.8682,3.0488,5.7911,5.7911,0,0,1-2.5029,2.08,9.503,9.503,0,0,1-3.9883.7529,11.1411,11.1411,0,0,1-4.0449-.6885,8.9346,8.9346,0,0,1-3.0273-1.8935l1.6211-1.8213a7.6508,7.6508,0,0,0,5.48,2.08,5.9942,5.9942,0,0,0,2.1582-.3808,3.6735,3.6735,0,0,0,1.6075-1.1475,3.0057,3.0057,0,0,0,.6093-1.93,2.7679,2.7679,0,0,0-1.6494-2.7255,13.5965,13.5965,0,0,0-2.5683-.9893,20.0432,20.0432,0,0,1-3.4356-1.3418,5.8951,5.8951,0,0,1-2.1807-1.8145,4.8665,4.8665,0,0,1,.0938-5.3437,5.6148,5.6148,0,0,1,2.3311-1.8291,8.2779,8.2779,0,0,1,3.3925-.66,10.1668,10.1668,0,0,1,3.6368.5957,8.9775,8.9775,0,0,1,2.8037,1.7139l-1.5772,1.7793a6.7,6.7,0,0,0-2.2666-1.3555,7.4822,7.4822,0,0,0-2.4678-.4238,5.639,5.639,0,0,0-1.9082.3086,3.1435,3.1435,0,0,0-1.37.9111,2.2983,2.2983,0,0,0-.5088,1.5352,2.2372,2.2372,0,0,0,.4444,1.3984,3.9937,3.9937,0,0,0,1.5068,1.0762,21.9324,21.9324,0,0,0,2.8828,1.04,15.6381,15.6381,0,0,1,2.9121,1.1475,5.6238,5.6238,0,0,1,2.1016,1.8437A5.3146,5.3146,0,0,1,157.3464,234.4312Z"/><path class="cls-3" d="M168.7937,237.99a5.62,5.62,0,0,0,2.0586-.373,8.7807,8.7807,0,0,0,1.7861-.9473l1.3193,1.793a7.5574,7.5574,0,0,1-2.3955,1.3486,8.3085,8.3085,0,0,1-2.8115.502,7.3959,7.3959,0,0,1-3.8955-.9756,6.3175,6.3175,0,0,1-2.46-2.7393,10.3953,10.3953,0,0,1,.0069-8.2343,6.713,6.713,0,0,1,2.4746-2.8477,7.1031,7.1031,0,0,1,3.917-1.04,8.2907,8.2907,0,0,1,2.7754.4521,7.8539,7.8539,0,0,1,2.36,1.3262l-1.3056,1.7939a8.0877,8.0877,0,0,0-1.88-.9834,5.7338,5.7338,0,0,0-1.9366-.3369,3.8961,3.8961,0,0,0-3.0986,1.4063,6.5473,6.5473,0,0,0-1.2051,4.332,7.74,7.74,0,0,0,.5528,3.17,3.7807,3.7807,0,0,0,1.5273,1.7862A4.3169,4.3169,0,0,0,168.7937,237.99Z"/><path class="cls-3" d="M179.1218,239.9546v-2.0371h2.2949V226.8716h-2.2949v-2.0371h4.4033l.503,3.5429a7.797,7.797,0,0,1,2.1152-2.8906,5.0431,5.0431,0,0,1,3.2637-1.0107,6.0477,6.0477,0,0,1,1.1689.1006q.51.1,1.04.2578l-.8173,2.41a5.39,5.39,0,0,0-1.75-.2588,3.9685,3.9685,0,0,0-2.9268,1.2344,8.72,8.72,0,0,0-1.9512,3.6289v6.0684h3.07v2.0371Zm9.9414-9.8125V226.67l.3154-1.8359h2.2373l-.43,5.3076Z"/><path class="cls-3" d="M204.11,224.8345V237.86h4.2041v2.0947H196.7517V237.86h4.6045V226.9292h-4.461v-2.0947Zm-2.0508-7.23a1.8578,1.8578,0,0,1,1.3838.5313,1.7675,1.7675,0,0,1,.5244,1.291,1.901,1.901,0,1,1-3.8018,0,1.7667,1.7667,0,0,1,.5235-1.291A1.84,1.84,0,0,1,202.0593,217.604Z"/><path class="cls-3" d="M220.4353,224.4761a4.9267,4.9267,0,0,1,3.2129.9824,5.4637,5.4637,0,0,1,1.7363,2.7539,14.608,14.608,0,0,1,.53,4.168,12.0179,12.0179,0,0,1-.6455,4.0879,6.1627,6.1627,0,0,1-1.9366,2.8193,5.0493,5.0493,0,0,1-3.2421,1.0254,4.92,4.92,0,0,1-3.9307-1.7217v7.1592l-2.7539.33V224.8345h2.3672l.2,2.0371a5.9609,5.9609,0,0,1,1.9941-1.7793A5.1435,5.1435,0,0,1,220.4353,224.4761Zm-.7031,2.166a3.2711,3.2711,0,0,0-2.08.71,6.7078,6.7078,0,0,0-1.4922,1.6142v7.3154a4.2717,4.2717,0,0,0,1.4062,1.3272,3.632,3.632,0,0,0,1.8506.4805,2.9954,2.9954,0,0,0,2.6826-1.3838,8.0845,8.0845,0,0,0,.9034-4.3252,12.1619,12.1619,0,0,0-.3584-3.2354,3.7419,3.7419,0,0,0-1.083-1.8857A2.7241,2.7241,0,0,0,219.7322,226.6421Z"/><path class="cls-3" d="M242.8991,239.18a6.92,6.92,0,0,1-1.9365.8242,8.5823,8.5823,0,0,1-2.2666.3086,5.285,5.285,0,0,1-3.8662-1.3193,4.5965,4.5965,0,0,1-1.3408-3.4288V226.9H230.06v-2.0654h3.4287V221.42l2.7539-.33v3.7442h5.1641l-.3155,2.0654h-4.8486v8.6367a2.5314,2.5314,0,0,0,.6387,1.8789,2.96,2.96,0,0,0,2.13.6309,5.6353,5.6353,0,0,0,1.55-.2,6.9026,6.9026,0,0,0,1.3046-.5166Z"/><path class="cls-3" d="M268.0027,229.9126a19.402,19.402,0,0,0,.416,4.2324,12.9577,12.9577,0,0,0,1.2187,3.335,13.8685,13.8685,0,0,0,1.9873,2.7754,27.7414,27.7414,0,0,0,2.7188,2.5683l-.8613,1.0039a30.1647,30.1647,0,0,1-3.9952-3.8369,14.0462,14.0462,0,0,1-2.5322-4.3613,19.1576,19.1576,0,0,1,0-11.4473,14.0462,14.0462,0,0,1,2.5322-4.3613,29.5589,29.5589,0,0,1,3.9952-3.8232l.8613,1.0039a29.5273,29.5273,0,0,0-2.7686,2.6113,13.6692,13.6692,0,0,0-1.9873,2.7617,12.36,12.36,0,0,0-1.19,3.3067A20.2366,20.2366,0,0,0,268.0027,229.9126Z"/><path class="cls-3" d="M285.2312,221.8794v7.2158h7.459v1.6787h-7.459v7.5879h9.1953v1.5928H283.3943V220.2437h10.7021l-.2441,1.6357Z"/><path class="cls-3" d="M311.8552,234.5894a5.3476,5.3476,0,0,1-.8105,2.9267,5.4317,5.4317,0,0,1-2.3594,2.001,8.9159,8.9159,0,0,1-3.7881.7246,10.7867,10.7867,0,0,1-3.6787-.6172,8.3,8.3,0,0,1-2.9629-1.8076l1.2051-1.377a7.5536,7.5536,0,0,0,5.5371,2.1231,6.6826,6.6826,0,0,0,2.3955-.4307,4.2629,4.2629,0,0,0,1.8506-1.3193,3.4942,3.4942,0,0,0,.7177-2.2666,3.6818,3.6818,0,0,0-.3876-1.7578,3.42,3.42,0,0,0-1.377-1.291,13.1087,13.1087,0,0,0-2.7832-1.083,21.6471,21.6471,0,0,1-3.27-1.212,6.16,6.16,0,0,1-2.252-1.7216,4.13,4.13,0,0,1-.8183-2.6319,4.3038,4.3038,0,0,1,.7539-2.4824,5.1683,5.1683,0,0,1,2.1152-1.75,7.4136,7.4136,0,0,1,3.1992-.6455,9.4,9.4,0,0,1,3.4073.56,9.1682,9.1682,0,0,1,2.6611,1.6064l-1.2334,1.3486a6.7134,6.7134,0,0,0-2.3174-1.4052,7.6273,7.6273,0,0,0-2.5176-.4307,6.0523,6.0523,0,0,0-2.0947.3516,3.5641,3.5641,0,0,0-1.5488,1.0547,2.6948,2.6948,0,0,0-.5879,1.7929,2.61,2.61,0,0,0,.4873,1.585,4.2865,4.2865,0,0,0,1.6426,1.22,21.3224,21.3224,0,0,0,3.12,1.126,16.9054,16.9054,0,0,1,2.74,1.0254,5.5668,5.5668,0,0,1,2.13,1.75A5.0311,5.0311,0,0,1,311.8552,234.5894Z"/><path class="cls-3" d="M323.446,219.9712a6.8452,6.8452,0,0,1,2.0225.2871,6.94,6.94,0,0,1,1.7646.832l-.7177,1.3057a6.0376,6.0376,0,0,0-1.4922-.6318,6.3273,6.3273,0,0,0-1.6641-.2149,3.9229,3.9229,0,0,0-2.8682,1.1475,7.0786,7.0786,0,0,0-1.7363,3.2138,17.3919,17.3919,0,0,0-.5449,4.82l.0283.788a10.6714,10.6714,0,0,0,1.083,5.4375,3.75,3.75,0,0,0,3.4356,1.7071,3.6069,3.6069,0,0,0,3.0918-1.3985,6.4674,6.4674,0,0,0,1.04-3.9238,6.0983,6.0983,0,0,0-.4873-2.6826,2.8834,2.8834,0,0,0-1.3633-1.3838,4.7164,4.7164,0,0,0-2.0224-.4092,4.5647,4.5647,0,0,0-2.9981,1.04,7.4366,7.4366,0,0,0-2.0088,2.6318l-.0713-1.9072a6.8021,6.8021,0,0,1,2.252-2.6114,5.4647,5.4647,0,0,1,2.9551-.789,6.0721,6.0721,0,0,1,2.79.6455,4.9014,4.9014,0,0,1,2.0449,2.001,6.9305,6.9305,0,0,1,.7744,3.4648,7.8266,7.8266,0,0,1-.832,3.7725,5.8494,5.8494,0,0,1-2.1953,2.332,5.7333,5.7333,0,0,1-2.94.7959,6.0831,6.0831,0,0,1-2.9551-.66,5.0464,5.0464,0,0,1-1.9443-1.915,9.4151,9.4151,0,0,1-1.0752-3.0625,22.3539,22.3539,0,0,1-.3379-4.0889,17.0681,17.0681,0,0,1,.8252-5.6162,8.0111,8.0111,0,0,1,2.3818-3.6435A5.7253,5.7253,0,0,1,323.446,219.9712Z"/><path class="cls-3" d="M340.6306,224.59v5.667h5.5947v1.5918h-5.5947v5.6094h-1.793v-5.6094h-5.5234v-1.5918h5.5234V224.59Z"/><path class="cls-3" d="M359.8962,229.9126a20.3042,20.3042,0,0,0-.3945-4.2314,12.3983,12.3983,0,0,0-1.19-3.3067,13.6692,13.6692,0,0,0-1.9873-2.7617,29.7775,29.7775,0,0,0-2.7686-2.6113l.86-1.0039a28.7962,28.7962,0,0,1,4.003,3.8232,14.1019,14.1019,0,0,1,2.5244,4.3613,19.1576,19.1576,0,0,1,0,11.4473,14.1019,14.1019,0,0,1-2.5244,4.3613,29.3709,29.3709,0,0,1-4.003,3.8369l-.86-1.0039a27.74,27.74,0,0,0,2.7187-2.5683,13.82,13.82,0,0,0,1.9864-2.7754,12.9218,12.9218,0,0,0,1.22-3.335A19.4082,19.4082,0,0,0,359.8962,229.9126Z"/><path class="cls-3" d="M374.198,235.5933a2.0461,2.0461,0,0,1,2.08,2.0517,5.8518,5.8518,0,0,1-.0645.8535,2.9927,2.9927,0,0,1-.2939.8965l-2.3965,5.5088h-1.9219l1.3486-5.5371a2.1262,2.1262,0,0,1-.581-.7461,2.204,2.204,0,0,1-.2227-.9756,2.0031,2.0031,0,0,1,.5879-1.4492A1.9643,1.9643,0,0,1,374.198,235.5933Z"/><path class="cls-3" d="M84.073,273.5229,77.4021,256.38q.0277.3735.0859,1.1621t.1289,1.8506q.0718,1.06.1221,2.2519t.05,2.3672v9.5107h-2.582V253.7554H78.98l6.7422,17.1855q-.0292-.4878-.1289-1.6279t-.18-2.7119q-.0791-1.57-.0791-3.335v-9.5107h2.582v19.7675Z"/><path class="cls-3" d="M98.8044,258.0444a6.436,6.436,0,0,1,3.6367.9756,6.0253,6.0253,0,0,1,2.2237,2.7471,10.64,10.64,0,0,1,.7529,4.1816,10.3672,10.3672,0,0,1-.7676,4.1241,6,6,0,0,1-5.874,3.8085,6.48,6.48,0,0,1-3.6367-.9755,6.0338,6.0338,0,0,1-2.2451-2.7539,10.56,10.56,0,0,1-.7608-4.1748,10.4067,10.4067,0,0,1,.7676-4.1387,6.2391,6.2391,0,0,1,2.26-2.79A6.3775,6.3775,0,0,1,98.8044,258.0444Zm0,2.1944a3.1731,3.1731,0,0,0-2.8115,1.3994,10.4292,10.4292,0,0,0-.0147,8.6494,3.4957,3.4957,0,0,0,5.5948,0,10.552,10.552,0,0,0,.0078-8.6572A3.1115,3.1115,0,0,0,98.8044,260.2388Z"/><path class="cls-3" d="M119.1023,251.9907l2.7549.33v21.2021h-2.4249l-.2294-1.9365a5.3793,5.3793,0,0,1-1.8936,1.7217,5.4957,5.4957,0,0,1-5.6016-.4238,5.86,5.86,0,0,1-1.8867-2.7754,12.6091,12.6091,0,0,1-.6162-4.1318,10.9718,10.9718,0,0,1,.71-4.0811,6.5362,6.5362,0,0,1,2.0371-2.8193,5.06,5.06,0,0,1,3.206-1.0323,5.3757,5.3757,0,0,1,2.2237.4375,5.0142,5.0142,0,0,1,1.7207,1.2842Zm-3.2276,8.22a3.1346,3.1346,0,0,0-2.7392,1.42,7.7461,7.7461,0,0,0-.9756,4.3467,10.8924,10.8924,0,0,0,.4014,3.2138,3.848,3.848,0,0,0,1.1621,1.8936,2.8638,2.8638,0,0,0,1.8652.6162,3.21,3.21,0,0,0,2.0576-.6885,6.64,6.64,0,0,0,1.4561-1.5918v-7.3877a4.369,4.369,0,0,0-1.4121-1.3418A3.545,3.545,0,0,0,115.8747,260.21Z"/><path class="cls-3" d="M129.56,266.895a6.2038,6.2038,0,0,0,.6738,2.7188,3.7448,3.7448,0,0,0,1.5352,1.55,4.46,4.46,0,0,0,2.0947.4941,6.0521,6.0521,0,0,0,2.08-.3437,8.8719,8.8719,0,0,0,1.9218-1.0039l1.2481,1.7353a8.4064,8.4064,0,0,1-2.4531,1.3408,8.5382,8.5382,0,0,1-2.8838.4951,7.089,7.089,0,0,1-3.8516-.997,6.3511,6.3511,0,0,1-2.41-2.7754,10.6234,10.6234,0,0,1,0-8.2061,6.7781,6.7781,0,0,1,2.331-2.8261,6.1893,6.1893,0,0,1,3.5869-1.0323,6.11,6.11,0,0,1,3.3643.9034,5.8357,5.8357,0,0,1,2.1728,2.5751,9.592,9.592,0,0,1,.7608,3.9952c0,.2588-.0049.5068-.0147.7461s-.0244.4492-.0429.6308Zm3.9013-6.6992a3.5024,3.5024,0,0,0-2.6748,1.1475,5.6217,5.6217,0,0,0-1.2265,3.5439h7.5166a5.6862,5.6862,0,0,0-.9971-3.4932A3.164,3.164,0,0,0,133.4616,260.1958Z"/><path class="cls-3" d="M147.7781,271.228a2.6,2.6,0,0,1,.3437-1.3271,2.539,2.539,0,0,1,.94-.9395,2.6,2.6,0,0,1,1.3262-.3447,2.6992,2.6992,0,0,1,1.3633.3447,2.5184,2.5184,0,0,1,.9463.9395,2.5921,2.5921,0,0,1,.3447,1.3271,2.6707,2.6707,0,0,1-.3447,1.3408,2.54,2.54,0,0,1-.9463.961,2.6546,2.6546,0,0,1-1.3633.3515,2.5594,2.5594,0,0,1-2.2666-1.3125A2.6792,2.6792,0,0,1,147.7781,271.228Z"/><path class="cls-3" d="M171.9206,258.4028V270.769a7.9439,7.9439,0,0,1-1.1543,4.4248,8.12,8.12,0,0,1-3.3506,2.8409,20.0985,20.0985,0,0,1-5.3212,1.6142l-.4454-2.124a17.35,17.35,0,0,0,3.9307-1.1475,6.2865,6.2865,0,0,0,2.64-2.0586,5.6115,5.6115,0,0,0,.9472-3.3632v-10.458h-6.1543v-2.0948Zm-2.3672-7.23a1.8822,1.8822,0,0,1,1.3916.5312,1.7582,1.7582,0,0,1,.5313,1.291,1.8166,1.8166,0,0,1-.5313,1.3272,1.8679,1.8679,0,0,1-1.3916.5381,1.8154,1.8154,0,0,1-1.8789-1.8653,1.7668,1.7668,0,0,1,.5235-1.291A1.8214,1.8214,0,0,1,169.5534,251.1724Z"/><path class="cls-3" d="M184.2712,271.687a4.8489,4.8489,0,0,0,2.6035-.6025,1.8508,1.8508,0,0,0,.9541-1.6358,2.3933,2.3933,0,0,0-.2509-1.1328,2.24,2.24,0,0,0-1.0323-.8613,12.8043,12.8043,0,0,0-2.36-.7891,16.25,16.25,0,0,1-2.6826-.9033,4.4277,4.4277,0,0,1-1.7715-1.3486,3.4906,3.4906,0,0,1-.624-2.1514,3.5734,3.5734,0,0,1,.7246-2.2383,4.6042,4.6042,0,0,1,2.0507-1.4629,8.4871,8.4871,0,0,1,3.0918-.5166,9.6472,9.6472,0,0,1,3.2491.4952,8.8844,8.8844,0,0,1,2.3457,1.2119l-1.1768,1.7929a8.6808,8.6808,0,0,0-1.915-.9609,7.2377,7.2377,0,0,0-2.4453-.3731,4.2339,4.2339,0,0,0-2.3887.5088,1.5769,1.5769,0,0,0-.71,1.3418,1.5164,1.5164,0,0,0,.3516,1.0254,3.1242,3.1242,0,0,0,1.2119.753,23.2466,23.2466,0,0,0,2.3809.7607,14.3121,14.3121,0,0,1,2.583.9473,4.384,4.384,0,0,1,1.7138,1.4267,3.9991,3.9991,0,0,1,.6094,2.3174,3.7308,3.7308,0,0,1-.9316,2.6318,5.4667,5.4667,0,0,1-2.418,1.4844,10.3246,10.3246,0,0,1-3.1631.4736,9.409,9.409,0,0,1-3.55-.6025,8.7414,8.7414,0,0,1-2.4892-1.4775l1.52-1.75a7.4741,7.4741,0,0,0,2.0371,1.1836A6.72,6.72,0,0,0,184.2712,271.687Z"/><path class="cls-3" d="M216.3611,263.481a19.4027,19.4027,0,0,0,.416,4.2324,12.9556,12.9556,0,0,0,1.2187,3.3349,13.8629,13.8629,0,0,0,1.9873,2.7754,27.7419,27.7419,0,0,0,2.7188,2.5684l-.8613,1.0039a30.1647,30.1647,0,0,1-3.9952-3.8369,14.0462,14.0462,0,0,1-2.5322-4.3613,19.1576,19.1576,0,0,1,0-11.4473,14.0462,14.0462,0,0,1,2.5322-4.3613,29.5593,29.5593,0,0,1,3.9952-3.8233l.8613,1.0039a29.5408,29.5408,0,0,0-2.7686,2.6114,13.6692,13.6692,0,0,0-1.9873,2.7617,12.36,12.36,0,0,0-1.19,3.3066A20.2376,20.2376,0,0,0,216.3611,263.481Z"/><path class="cls-3" d="M233.59,255.4478v7.2158h7.459v1.6787H233.59V271.93h9.1953v1.5927H231.7527V253.812h10.7021l-.2441,1.6358Z"/><path class="cls-3" d="M249.0818,273.5229h-2.1094l5.6807-7.9619-4.9346-7.1006h2.1953l3.8154,5.8389,3.9024-5.8389h2.1377l-5.0069,7.0147,5.666,8.0478h-2.31l-4.461-6.7138Z"/><path class="cls-3" d="M271.7038,258.188a4.917,4.917,0,0,1,3.2129.9756,5.37,5.37,0,0,1,1.7071,2.7324,14.5693,14.5693,0,0,1,.5166,4.0957,12.0588,12.0588,0,0,1-.6241,4.0312,5.9548,5.9548,0,0,1-1.9082,2.7754,5.6828,5.6828,0,0,1-7.38-.7812v7.2588l-1.7792.2431V258.46h1.4628l.2012,2.2237a6.1249,6.1249,0,0,1,1.9727-1.8223A5.1479,5.1479,0,0,1,271.7038,258.188Zm-.3154,1.5205a3.8409,3.8409,0,0,0-2.4531.8389,8.1546,8.1546,0,0,0-1.7071,1.7861v7.8037a4.7091,4.7091,0,0,0,1.6348,1.4922,4.4083,4.4083,0,0,0,2.1807.56,3.4955,3.4955,0,0,0,3.12-1.5352,8.5545,8.5545,0,0,0,1.0254-4.69,12.4221,12.4221,0,0,0-.4014-3.4,4.3185,4.3185,0,0,0-1.2412-2.1231A3.1681,3.1681,0,0,0,271.3884,259.7085Z"/><path class="cls-3" d="M282.8064,273.5229v-1.4921H285.26V259.9663h-2.4531V258.46h3.8154l.33,3.6153a8.5343,8.5343,0,0,1,2.1308-2.877,5.0487,5.0487,0,0,1,3.35-1.04,5.9091,5.9091,0,0,1,1.0538.0859c.3115.0576.6386.13.9834.2158l-.502,1.6778a8.91,8.91,0,0,0-.8828-.208,5.2281,5.2281,0,0,0-.8682-.0645,4.2844,4.2844,0,0,0-3.0986,1.2412,9.0465,9.0465,0,0,0-2.08,3.9239v7h3.0987v1.4921Zm9.74-10.3291v-2.94l.1152-1.793H294.47l-.2012,4.7334Z"/><path class="cls-3" d="M301.1677,266.7085a7.0008,7.0008,0,0,0,.6816,3.1064,4.1912,4.1912,0,0,0,1.6856,1.7862,4.6765,4.6765,0,0,0,2.2812.5732,6.04,6.04,0,0,0,2.1153-.3437,8.9889,8.9889,0,0,0,1.9443-1.0479l.9326,1.334a8.1093,8.1093,0,0,1-2.36,1.248,7.9442,7.9442,0,0,1-2.5606.4454,6.343,6.343,0,0,1-3.5644-.9756,6.2363,6.2363,0,0,1-2.2744-2.7324,9.9311,9.9311,0,0,1-.7891-4.0958,9.7,9.7,0,0,1,.8037-4.06,6.6233,6.6233,0,0,1,2.2305-2.7607,5.6522,5.6522,0,0,1,3.3213-.9971,5.4464,5.4464,0,0,1,3.1416.8887,5.6363,5.6363,0,0,1,2.0009,2.5185,9.8332,9.8332,0,0,1,.6963,3.88q0,.3867-.0146.6963c-.01.2051-.02.3848-.0283.5371Zm4.49-6.8564a4.0759,4.0759,0,0,0-3.0625,1.291,6.0685,6.0685,0,0,0-1.3984,3.959h8.5635a6.0886,6.0886,0,0,0-1.19-3.9522A3.691,3.691,0,0,0,305.6579,259.8521Z"/><path class="cls-3" d="M321.9392,272.189a5.3458,5.3458,0,0,0,3.0195-.7393,2.2462,2.2462,0,0,0,1.0977-1.9434,3.2936,3.2936,0,0,0-.2364-1.2988,2.2258,2.2258,0,0,0-1.0185-.9892,9.9053,9.9053,0,0,0-2.4033-.8252,20.0877,20.0877,0,0,1-2.8047-.89,4.5248,4.5248,0,0,1-1.8291-1.2763,3.2072,3.2072,0,0,1-.6455-2.0948,3.2884,3.2884,0,0,1,.7109-2.13,4.4355,4.4355,0,0,1,1.95-1.3486,7.94,7.94,0,0,1,2.8047-.4658,9.07,9.07,0,0,1,3.0771.4726,8.2769,8.2769,0,0,1,2.2022,1.1485l-.832,1.3193a8.3523,8.3523,0,0,0-1.8506-.9756,7.3554,7.3554,0,0,0-2.5821-.3867,4.6549,4.6549,0,0,0-2.7978.6309,1.9441,1.9441,0,0,0-.8027,1.5918,1.8643,1.8643,0,0,0,.3945,1.2265,3.2016,3.2016,0,0,0,1.2978.8467,22.2263,22.2263,0,0,0,2.4385.7822,13.6329,13.6329,0,0,1,2.583.9327,4.47,4.47,0,0,1,1.7207,1.42,3.8474,3.8474,0,0,1,.6172,2.2666,3.5659,3.5659,0,0,1-.8965,2.5459,5.0889,5.0889,0,0,1-2.3027,1.3769,10.0957,10.0957,0,0,1-2.9268.4239,8.22,8.22,0,0,1-5.6377-1.9659l1.1055-1.3046a7.2486,7.2486,0,0,0,2.0508,1.1972A6.813,6.813,0,0,0,321.9392,272.189Z"/><path class="cls-3" d="M339.1531,272.189a5.346,5.346,0,0,0,3.0195-.7393,2.2461,2.2461,0,0,0,1.0976-1.9434,3.2955,3.2955,0,0,0-.2363-1.2988,2.2258,2.2258,0,0,0-1.0185-.9892,9.9048,9.9048,0,0,0-2.4034-.8252,20.0963,20.0963,0,0,1-2.8047-.89,4.5262,4.5262,0,0,1-1.8291-1.2763,3.2078,3.2078,0,0,1-.6455-2.0948,3.2879,3.2879,0,0,1,.711-2.13,4.4344,4.4344,0,0,1,1.95-1.3486,7.94,7.94,0,0,1,2.8047-.4658,9.07,9.07,0,0,1,3.0771.4726,8.2769,8.2769,0,0,1,2.2022,1.1485l-.8321,1.3193a8.35,8.35,0,0,0-1.8506-.9756,7.3548,7.3548,0,0,0-2.582-.3867,4.6549,4.6549,0,0,0-2.7978.6309,1.9442,1.9442,0,0,0-.8028,1.5918,1.8643,1.8643,0,0,0,.3946,1.2265,3.2009,3.2009,0,0,0,1.2978.8467,22.2121,22.2121,0,0,0,2.4385.7822,13.6354,13.6354,0,0,1,2.583.9327,4.4708,4.4708,0,0,1,1.7207,1.42,3.8481,3.8481,0,0,1,.6172,2.2666,3.5659,3.5659,0,0,1-.8965,2.5459,5.0894,5.0894,0,0,1-2.3027,1.3769,10.0957,10.0957,0,0,1-2.9268.4239,8.22,8.22,0,0,1-5.6377-1.9659l1.1055-1.3046a7.2472,7.2472,0,0,0,2.0508,1.1972A6.813,6.813,0,0,0,339.1531,272.189Z"/><path class="cls-3" d="M359.8962,263.481a20.3052,20.3052,0,0,0-.3945-4.2315,12.3976,12.3976,0,0,0-1.19-3.3066,13.6692,13.6692,0,0,0-1.9873-2.7617,29.7912,29.7912,0,0,0-2.7686-2.6114l.86-1.0039a28.7966,28.7966,0,0,1,4.003,3.8233,14.1019,14.1019,0,0,1,2.5244,4.3613,19.1576,19.1576,0,0,1,0,11.4473,14.1019,14.1019,0,0,1-2.5244,4.3613,29.3709,29.3709,0,0,1-4.003,3.8369l-.86-1.0039a27.74,27.74,0,0,0,2.7187-2.5684,13.8145,13.8145,0,0,0,1.9864-2.7754,12.92,12.92,0,0,0,1.22-3.3349A19.4088,19.4088,0,0,0,359.8962,263.481Z"/><path class="cls-3" d="M374.198,269.1616a2.0463,2.0463,0,0,1,2.08,2.0518,5.8529,5.8529,0,0,1-.0645.8535,2.9936,2.9936,0,0,1-.2939.8965l-2.3965,5.5088h-1.9219l1.3486-5.5371a2.1271,2.1271,0,0,1-.581-.7461,2.204,2.204,0,0,1-.2227-.9756,2.0029,2.0029,0,0,1,.5879-1.4492A1.9643,1.9643,0,0,1,374.198,269.1616Z"/><path class="cls-3" d="M87.3435,287.3237v13.1114a9.36,9.36,0,0,1-.3584,2.5752,6.26,6.26,0,0,1-1.17,2.2519,5.6341,5.6341,0,0,1-2.1368,1.585,8.0813,8.0813,0,0,1-3.2783.5888,9.1575,9.1575,0,0,1-2.9267-.4668,9.5752,9.5752,0,0,1-2.5967-1.3408l1.22-1.8506a8.5866,8.5866,0,0,0,2.2813,1.0684,7.474,7.474,0,0,0,1.9511.28,3.8476,3.8476,0,0,0,3.0762-1.2705,5.2289,5.2289,0,0,0,1.0977-3.5362V289.5757H78.6072v-2.252Z"/><path class="cls-3" d="M104.0554,303.62a2.33,2.33,0,0,0,.2861,1.3125,1.71,1.71,0,0,0,.9043.61L104.6,307.436a4.2616,4.2616,0,0,1-1.793-.6172,2.8947,2.8947,0,0,1-1.1337-1.4921,5.1678,5.1678,0,0,1-2.0655,1.5849,6.7658,6.7658,0,0,1-2.7119.5381,4.9251,4.9251,0,0,1-3.6006-1.291,4.5409,4.5409,0,0,1-1.3193-3.3994,4.1319,4.1319,0,0,1,1.8437-3.63,9.3489,9.3489,0,0,1,5.3-1.2617h2.1954v-1.1485a2.5435,2.5435,0,0,0-.9258-2.2236,4.3741,4.3741,0,0,0-2.5742-.6592,10.2551,10.2551,0,0,0-1.7793.1865,14.7927,14.7927,0,0,0-2.1944.5879l-.7031-2.0087a15.2621,15.2621,0,0,1,2.6895-.76,13.6679,13.6679,0,0,1,2.4033-.23,6.2927,6.2927,0,0,1,4.375,1.3271,4.6859,4.6859,0,0,1,1.4492,3.6358Zm-6.3838,1.7647a4.1232,4.1232,0,0,0,2.0371-.5449,4.5212,4.5212,0,0,0,1.6065-1.5206v-3.6582H99.3064a5.4914,5.4914,0,0,0-3.3994.8106,2.6923,2.6923,0,0,0-1.0039,2.2158,2.7221,2.7221,0,0,0,.6884,2.0088A2.8273,2.8273,0,0,0,97.6716,305.3843Z"/><path class="cls-3" d="M123.0046,291.9712l-5.4228,15.12h-3.2129l-5.3936-15.12h2.9258l4.1465,12.7246,4.1308-12.7246Z"/><path class="cls-3" d="M138.4831,303.62a2.33,2.33,0,0,0,.2862,1.3125,1.71,1.71,0,0,0,.9043.61l-.6455,1.8935a4.2611,4.2611,0,0,1-1.793-.6172,2.8948,2.8948,0,0,1-1.1338-1.4921,5.1675,5.1675,0,0,1-2.0654,1.5849,6.7664,6.7664,0,0,1-2.7119.5381,4.9247,4.9247,0,0,1-3.6006-1.291,4.541,4.541,0,0,1-1.3194-3.3994,4.1317,4.1317,0,0,1,1.8438-3.63,9.3484,9.3484,0,0,1,5.3-1.2617h2.1953v-1.1485a2.5435,2.5435,0,0,0-.9258-2.2236,4.3741,4.3741,0,0,0-2.5742-.6592,10.2561,10.2561,0,0,0-1.7793.1865,14.7916,14.7916,0,0,0-2.1943.5879l-.7032-2.0087a15.2644,15.2644,0,0,1,2.6895-.76,13.6688,13.6688,0,0,1,2.4033-.23,6.2927,6.2927,0,0,1,4.375,1.3271,4.6859,4.6859,0,0,1,1.4492,3.6358Zm-6.3838,1.7647a4.1233,4.1233,0,0,0,2.0372-.5449,4.5218,4.5218,0,0,0,1.6064-1.5206v-3.6582h-2.0088a5.4914,5.4914,0,0,0-3.3994.8106,2.6926,2.6926,0,0,0-1.0039,2.2158,2.7221,2.7221,0,0,0,.6885,2.0088A2.8268,2.8268,0,0,0,132.0993,305.3843Z"/><path class="cls-3" d="M164.72,297.0493a19.4014,19.4014,0,0,0,.416,4.2324,12.9563,12.9563,0,0,0,1.2187,3.335,13.8685,13.8685,0,0,0,1.9873,2.7754A27.7414,27.7414,0,0,0,171.06,309.96l-.8613,1.004a30.1714,30.1714,0,0,1-3.9952-3.837,14.0462,14.0462,0,0,1-2.5322-4.3613,19.1576,19.1576,0,0,1,0-11.4473,14.0462,14.0462,0,0,1,2.5322-4.3613,29.5589,29.5589,0,0,1,3.9952-3.8232l.8613,1.0039a29.54,29.54,0,0,0-2.7686,2.6113,13.6747,13.6747,0,0,0-1.9873,2.7617,12.3616,12.3616,0,0,0-1.19,3.3067A20.2366,20.2366,0,0,0,164.72,297.0493Z"/><path class="cls-3" d="M191.3581,301.7261a5.3476,5.3476,0,0,1-.8105,2.9267,5.4317,5.4317,0,0,1-2.3594,2.001,8.9159,8.9159,0,0,1-3.7881.7246,10.7847,10.7847,0,0,1-3.6787-.6172,8.3006,8.3006,0,0,1-2.9629-1.8076l1.2051-1.3769a7.553,7.553,0,0,0,5.5371,2.123,6.68,6.68,0,0,0,2.3955-.4307,4.2618,4.2618,0,0,0,1.8506-1.3193,3.4942,3.4942,0,0,0,.7178-2.2666,3.6806,3.6806,0,0,0-.3877-1.7578,3.42,3.42,0,0,0-1.377-1.291,13.1065,13.1065,0,0,0-2.7832-1.083,21.6405,21.6405,0,0,1-3.27-1.2119,6.16,6.16,0,0,1-2.2519-1.7217,4.129,4.129,0,0,1-.8184-2.6319,4.3038,4.3038,0,0,1,.7539-2.4824,5.1689,5.1689,0,0,1,2.1152-1.75,7.4141,7.4141,0,0,1,3.1993-.6455,9.3991,9.3991,0,0,1,3.4072.56,9.17,9.17,0,0,1,2.6611,1.6064l-1.2334,1.3487a6.7128,6.7128,0,0,0-2.3174-1.4053,7.6272,7.6272,0,0,0-2.5175-.4307,6.0529,6.0529,0,0,0-2.0948.3516,3.5649,3.5649,0,0,0-1.5488,1.0547,2.6948,2.6948,0,0,0-.5879,1.7929,2.61,2.61,0,0,0,.4873,1.585,4.2863,4.2863,0,0,0,1.6426,1.22,21.3267,21.3267,0,0,0,3.12,1.126,16.9065,16.9065,0,0,1,2.74,1.0254,5.5665,5.5665,0,0,1,2.13,1.75A5.0311,5.0311,0,0,1,191.3581,301.7261Z"/><path class="cls-3" d="M202.8484,291.7563a4.9174,4.9174,0,0,1,3.2129.9756,5.37,5.37,0,0,1,1.707,2.7325,14.5688,14.5688,0,0,1,.5166,4.0957,12.0589,12.0589,0,0,1-.624,4.0312,5.9563,5.9563,0,0,1-1.9082,2.7754,5.683,5.683,0,0,1-7.38-.7813v7.2588l-1.7793.2432V292.0288h1.4629l.2011,2.2236A6.1245,6.1245,0,0,1,200.23,292.43,5.1481,5.1481,0,0,1,202.8484,291.7563Zm-.3155,1.5206a3.8414,3.8414,0,0,0-2.4531.8388,8.1565,8.1565,0,0,0-1.707,1.7862v7.8037a4.7089,4.7089,0,0,0,1.6347,1.4922,4.4085,4.4085,0,0,0,2.1807.56,3.4954,3.4954,0,0,0,3.12-1.5351,8.5549,8.5549,0,0,0,1.0254-4.69,12.4231,12.4231,0,0,0-.4014-3.4,4.3174,4.3174,0,0,0-1.2412-2.123A3.168,3.168,0,0,0,202.5329,293.2769Z"/><path class="cls-3" d="M213.9509,307.0913v-1.4922h2.4531V293.5347h-2.4531v-1.5059h3.8154l.33,3.6152a8.5317,8.5317,0,0,1,2.1309-2.8769,5.0478,5.0478,0,0,1,3.35-1.04,5.8994,5.8994,0,0,1,1.0537.0859q.4673.0864.9834.2158l-.502,1.6777a8.9253,8.9253,0,0,0-.8828-.208,5.2383,5.2383,0,0,0-.8681-.0644,4.284,4.284,0,0,0-3.0987,1.2412,9.0454,9.0454,0,0,0-2.08,3.9238v7h3.0987v1.4922Zm9.74-10.3291v-2.94l.1153-1.793h1.8076l-.2012,4.7334Z"/><path class="cls-3" d="M238.1794,292.0288v13.5137h4.376v1.5488h-10.917v-1.5488h4.7627V293.5776H231.782v-1.5488Zm-1.6777-6.8144a1.4432,1.4432,0,0,1,1.09.416,1.3939,1.3939,0,0,1,.4014,1.0039,1.4717,1.4717,0,0,1-.4014,1.0547,1.43,1.43,0,0,1-1.09.4238,1.379,1.379,0,0,1-1.0479-.4238,1.472,1.472,0,0,1-.4013-1.0547,1.3971,1.3971,0,0,1,1.4492-1.42Z"/><path class="cls-3" d="M248.2351,307.0913V292.0288h1.4922l.1435,2.1943a5.8343,5.8343,0,0,1,2.3448-1.8212,6.7354,6.7354,0,0,1,2.7187-.6456,4.0712,4.0712,0,0,1,3.292,1.1758,4.9309,4.9309,0,0,1,.9834,3.2569v10.9023H257.43v-8.9941a17.0122,17.0122,0,0,0-.1865-2.7979,2.4617,2.4617,0,0,0-.8028-1.57,3.0853,3.0853,0,0,0-1.9375-.4951,4.1825,4.1825,0,0,0-1.8857.4375,6.2212,6.2212,0,0,0-1.55,1.0762,6.948,6.948,0,0,0-1.0537,1.24v11.1035Z"/><path class="cls-3" d="M277.3562,290.6655l.6592,1.9512a9.5985,9.5985,0,0,1-2.1084.3447q-1.0914.0571-2.3243.0567a4.3927,4.3927,0,0,1,1.9082,1.5566,3.9426,3.9426,0,0,1,.6309,2.2022,5.4077,5.4077,0,0,1-.6455,2.6611,4.5663,4.5663,0,0,1-1.8574,1.8291,6.0874,6.0874,0,0,1-2.9483.66,9.671,9.671,0,0,1-1.3769-.0791,5.8643,5.8643,0,0,1-1.0332-.2509,2.3071,2.3071,0,0,0-.6094.7168,1.8647,1.8647,0,0,0-.251.9326,1.215,1.215,0,0,0,.4658.9756,2.658,2.658,0,0,0,1.6573.3877h2.7832a6.365,6.365,0,0,1,2.6318.53,4.7944,4.7944,0,0,1,1.88,1.4346,3.2528,3.2528,0,0,1,.6953,2.0371,3.6836,3.6836,0,0,1-1.8437,3.335,9.6712,9.6712,0,0,1-5.1,1.1406,11.1918,11.1918,0,0,1-3.5859-.4658,3.4217,3.4217,0,0,1-1.915-1.4492,4.9217,4.9217,0,0,1-.5811-2.5323h1.6348a3.0277,3.0277,0,0,0,.3662,1.5645,2.2568,2.2568,0,0,0,1.3125.9248,9.1878,9.1878,0,0,0,2.7119.3086,11.8082,11.8082,0,0,0,2.876-.294,3.5362,3.5362,0,0,0,1.7138-.8964,2.1179,2.1179,0,0,0,.5743-1.52,1.9026,1.9026,0,0,0-1.1045-1.7793,5.5866,5.5866,0,0,0-2.6543-.5879h-2.7832a3.6761,3.6761,0,0,1-2.668-.8467,2.6432,2.6432,0,0,1-.86-1.9365,2.5661,2.5661,0,0,1,.4082-1.3555,4,4,0,0,1,1.2265-1.2119,4.6918,4.6918,0,0,1-1.8642-1.6641,4.5955,4.5955,0,0,1-.6172-2.4531,4.8522,4.8522,0,0,1,.7314-2.64,5.1367,5.1367,0,0,1,2.0371-1.8369,6.5087,6.5087,0,0,1,3.0274-.6738q1.9643-.0292,3.1338-.15a11.85,11.85,0,0,0,1.9795-.3516Q276.4812,291.01,277.3562,290.6655Zm-6.8428,2.4824a3.7572,3.7572,0,0,0-2.9775,1.0752,3.9553,3.9553,0,0,0-.94,2.6973,3.5518,3.5518,0,0,0,4.0029,3.7725,3.4136,3.4136,0,0,0,2.6534-1.0039,3.9686,3.9686,0,0,0,.9179-2.7832,3.8958,3.8958,0,0,0-.9179-2.7969A3.6191,3.6191,0,0,0,270.5134,293.1479Z"/><path class="cls-3" d="M304.74,287.1372a6.6958,6.6958,0,0,1,2.2588.3945,5.9888,5.9888,0,0,1,2.3027,1.6993l-1.1475,1.0908a5.3311,5.3311,0,0,0-1.6064-1.32,4.3818,4.3818,0,0,0-2.0088-.43,3.2163,3.2163,0,0,0-2.4668.875,3.2883,3.2883,0,0,0-.3086,3.9306,3.8787,3.8787,0,0,0,1.37,1.2979,3.7533,3.7533,0,0,0,1.9072.4951h8.1055v1.5918h-2.7685v7.9043a6.9065,6.9065,0,0,1-1.0909,1.1621,6.4006,6.4006,0,0,1-1.8642,1.0908,7.5587,7.5587,0,0,1-2.7979.459,6.5356,6.5356,0,0,1-3.5927-.8828,5.2715,5.2715,0,0,1-1.9942-2.2236,6.4137,6.4137,0,0,1-.624-2.7324,5.6435,5.6435,0,0,1,1.1621-3.6368,5.4593,5.4593,0,0,1,3.3711-1.8857v-.0723a4.699,4.699,0,0,1-2.1016-.9609,3.6667,3.6667,0,0,1-1.0615-1.4922,4.7125,4.7125,0,0,1-.3086-1.6494,4.5186,4.5186,0,0,1,.624-2.3174,4.6752,4.6752,0,0,1,1.8077-1.7285A5.7362,5.7362,0,0,1,304.74,287.1372Zm4.0449,9.625h-4.1172a4.1454,4.1454,0,0,0-2.582.7539,4.516,4.516,0,0,0-1.4561,1.8506,5.4972,5.4972,0,0,0-.4658,2.1582,4.8826,4.8826,0,0,0,.4521,2.0518,3.7622,3.7622,0,0,0,1.4346,1.6211,4.7243,4.7243,0,0,0,2.5889.6308,6.1772,6.1772,0,0,0,2.41-.4512,4.2852,4.2852,0,0,0,1.7354-1.2841Z"/><path class="cls-3" d="M343.8874,307.0913v-9.6689h-8.2343v9.6689h-1.8223V287.38h1.8223v8.55h8.2343v-8.55h1.8213v19.7109Z"/><path class="cls-3" d="M358.6765,292.0288v13.5137h4.376v1.5488h-10.917v-1.5488h4.7627V293.5776H352.279v-1.5488Zm-1.6777-6.8144a1.4435,1.4435,0,0,1,1.09.416,1.3939,1.3939,0,0,1,.4014,1.0039,1.4717,1.4717,0,0,1-.4014,1.0547,1.4307,1.4307,0,0,1-1.09.4238,1.379,1.379,0,0,1-1.0479-.4238,1.4717,1.4717,0,0,1-.4014-1.0547,1.3973,1.3973,0,0,1,1.4493-1.42Z"/><path class="cls-3" d="M370.5115,294.1089a6.2508,6.2508,0,0,1,1.9716-1.7432,5.0359,5.0359,0,0,1,2.461-.6094,5.1854,5.1854,0,0,1,3.2851.9756,5.4946,5.4946,0,0,1,1.8145,2.7325,13.3679,13.3679,0,0,1,.5664,4.0957,11.1384,11.1384,0,0,1-.6817,4.0312,6.22,6.22,0,0,1-2.0009,2.7754,5.191,5.191,0,0,1-3.2559,1.0117,5.0911,5.0911,0,0,1-4.2178-1.9082l-.1718,1.6211h-1.55V285.9321l1.7793-.2441Zm3.7724,11.72a3.6865,3.6865,0,0,0,3.2061-1.57,8.2023,8.2023,0,0,0,1.1123-4.7266,11.4769,11.4769,0,0,0-.4375-3.4,4.4344,4.4344,0,0,0-1.3057-2.123,3.2607,3.2607,0,0,0-2.1738-.7314,3.86,3.86,0,0,0-2.4668.8388,8.1542,8.1542,0,0,0-1.707,1.7862v7.8037a4.9525,4.9525,0,0,0,1.6425,1.542A4.155,4.155,0,0,0,374.2839,305.8286Z"/><path class="cls-3" d="M387.237,300.2769a6.9994,6.9994,0,0,0,.6817,3.1064,4.1919,4.1919,0,0,0,1.6855,1.7861,4.6759,4.6759,0,0,0,2.2813.5733,6.04,6.04,0,0,0,2.1152-.3438,8.99,8.99,0,0,0,1.9443-1.0478l.9327,1.334a8.1111,8.1111,0,0,1-2.36,1.248,7.9438,7.9438,0,0,1-2.56.4453,6.3433,6.3433,0,0,1-3.5645-.9756,6.237,6.237,0,0,1-2.2744-2.7324,9.9306,9.9306,0,0,1-.7891-4.0957,9.6992,9.6992,0,0,1,.8037-4.06,6.6243,6.6243,0,0,1,2.2305-2.7608,5.6531,5.6531,0,0,1,3.3213-.9971,5.4464,5.4464,0,0,1,3.1416.8887,5.6375,5.6375,0,0,1,2.001,2.5186,9.8346,9.8346,0,0,1,.6963,3.88q0,.3867-.0147.6962c-.01.2051-.02.3848-.0283.5372Zm4.49-6.8565a4.076,4.076,0,0,0-3.0625,1.291,6.0684,6.0684,0,0,0-1.3985,3.959H395.83a6.089,6.089,0,0,0-1.19-3.9521A3.691,3.691,0,0,0,391.7273,293.42Z"/><path class="cls-3" d="M403.3034,307.0913v-1.4922h2.4532V293.5347h-2.4532v-1.5059h3.8155l.33,3.6152a8.5316,8.5316,0,0,1,2.1308-2.8769,5.0481,5.0481,0,0,1,3.35-1.04,5.8986,5.8986,0,0,1,1.0537.0859c.3116.0576.6387.13.9834.2158l-.5019,1.6777a8.9385,8.9385,0,0,0-.8828-.208,5.24,5.24,0,0,0-.8682-.0644,4.2836,4.2836,0,0,0-3.0986,1.2412,9.0444,9.0444,0,0,0-2.08,3.9238v7h3.0986v1.4922Zm9.74-10.3291v-2.94l.1152-1.793h1.8076l-.2011,4.7334Z"/><path class="cls-3" d="M420.3738,307.0913V292.0288h1.4921l.1436,2.1943a5.8346,5.8346,0,0,1,2.3447-1.8212,6.7358,6.7358,0,0,1,2.7188-.6456,4.0712,4.0712,0,0,1,3.292,1.1758,4.9315,4.9315,0,0,1,.9834,3.2569v10.9023h-1.7793v-8.9941a17,17,0,0,0-.1866-2.7979,2.4616,2.4616,0,0,0-.8027-1.57,3.0853,3.0853,0,0,0-1.9375-.4951,4.1825,4.1825,0,0,0-1.8857.4375,6.2212,6.2212,0,0,0-1.55,1.0762,6.9439,6.9439,0,0,0-1.0537,1.24v11.1035Z"/><path class="cls-3" d="M447.8161,304.1216a2.2594,2.2594,0,0,0,.3155,1.3418,1.8309,1.8309,0,0,0,.9756.624l-.4883,1.3047a3.3563,3.3563,0,0,1-1.5342-.6309,2.6855,2.6855,0,0,1-.9473-1.5351,5.1764,5.1764,0,0,1-1.9726,1.6,6.2544,6.2544,0,0,1-2.6748.5527,4.7788,4.7788,0,0,1-3.5147-1.2627,4.5261,4.5261,0,0,1-1.2773-3.3711,3.9969,3.9969,0,0,1,1.7861-3.5146,9.2162,9.2162,0,0,1,5.2-1.22h2.2813v-1.4629a2.8139,2.8139,0,0,0-1.0118-2.4746,4.73,4.73,0,0,0-2.7617-.71,9.9049,9.9049,0,0,0-1.7207.1719,13.901,13.901,0,0,0-2.1377.5879l-.5166-1.4629a14.9831,14.9831,0,0,1,2.4746-.7032,12.1553,12.1553,0,0,1,2.1592-.2,5.589,5.589,0,0,1,4.01,1.2979,4.54,4.54,0,0,1,1.3554,3.4355Zm-5.9824,1.8369a4.6546,4.6546,0,0,0,2.31-.6025,5.4445,5.4445,0,0,0,1.8223-1.6788v-4.3037H443.47a5.7057,5.7057,0,0,0-3.7442.94,3.1613,3.1613,0,0,0-1.0615,2.4892,3.2541,3.2541,0,0,0,.7744,2.3594A3.2075,3.2075,0,0,0,441.8337,305.9585Z"/><path class="cls-3" d="M466.2927,306.3745a5.78,5.78,0,0,1-1.8076.7451,8.3228,8.3228,0,0,1-1.9658.2588,4.9877,4.9877,0,0,1-3.5508-1.2051,3.9784,3.9784,0,0,1-1.2832-3.0273v-9.625h-3.5576v-1.4922h3.5576v-3.4717l1.7783-.2148v3.6865h5.3076l-.2431,1.4922h-5.0645v9.582a2.7286,2.7286,0,0,0,.71,2.0157,3.3006,3.3006,0,0,0,2.3886.71,6.0079,6.0079,0,0,0,1.5928-.2,6.8,6.8,0,0,0,1.3623-.5312Z"/><path class="cls-3" d="M473.3064,300.2769a6.9994,6.9994,0,0,0,.6816,3.1064,4.1915,4.1915,0,0,0,1.6856,1.7861,4.6755,4.6755,0,0,0,2.2812.5733,6.04,6.04,0,0,0,2.1152-.3438,8.993,8.993,0,0,0,1.9444-1.0478l.9326,1.334a8.11,8.11,0,0,1-2.36,1.248,7.9438,7.9438,0,0,1-2.56.4453,6.3436,6.3436,0,0,1-3.5645-.9756,6.237,6.237,0,0,1-2.2744-2.7324,9.9306,9.9306,0,0,1-.789-4.0957,9.6976,9.6976,0,0,1,.8037-4.06,6.6241,6.6241,0,0,1,2.23-2.7608,5.6531,5.6531,0,0,1,3.3213-.9971,5.4461,5.4461,0,0,1,3.1416.8887,5.6368,5.6368,0,0,1,2.001,2.5186,9.8329,9.8329,0,0,1,.6963,3.88q0,.3867-.0146.6962c-.01.2051-.02.3848-.0284.5372Zm4.49-6.8565a4.0763,4.0763,0,0,0-3.0625,1.291,6.0689,6.0689,0,0,0-1.3984,3.959h8.5634a6.0879,6.0879,0,0,0-1.19-3.9521A3.6907,3.6907,0,0,0,477.7966,293.42Z"/><path class="cls-3" d="M497.6072,297.0493a20.3037,20.3037,0,0,0-.3946-4.2314,12.3926,12.3926,0,0,0-1.19-3.3067,13.6747,13.6747,0,0,0-1.9873-2.7617,29.7908,29.7908,0,0,0-2.7686-2.6113l.86-1.0039a28.8007,28.8007,0,0,1,4.0029,3.8232,14.1019,14.1019,0,0,1,2.5244,4.3613,19.1576,19.1576,0,0,1,0,11.4473,14.1019,14.1019,0,0,1-2.5244,4.3613,29.382,29.382,0,0,1-4.0029,3.837l-.86-1.004a27.7414,27.7414,0,0,0,2.7188-2.5683,13.82,13.82,0,0,0,1.9863-2.7754,12.92,12.92,0,0,0,1.22-3.335A19.401,19.401,0,0,0,497.6072,297.0493Z"/><path class="cls-3" d="M511.9089,302.73a2.0459,2.0459,0,0,1,2.08,2.0517,5.8532,5.8532,0,0,1-.0645.8536,2.99,2.99,0,0,1-.2939.8964l-2.3965,5.5088h-1.9219l1.3487-5.5371a2.1253,2.1253,0,0,1-.5811-.7461,2.2046,2.2046,0,0,1-.2226-.9756,2.0032,2.0032,0,0,1,.5878-1.4492A1.9646,1.9646,0,0,1,511.9089,302.73Z"/><path class="cls-3" d="M84.1286,337.9487a3.0692,3.0692,0,0,1,.4307-1.6,3.287,3.287,0,0,1,1.1621-1.1621,3.1806,3.1806,0,0,1,3.22,0,3.3162,3.3162,0,0,1,1.1553,1.1621,3.1713,3.1713,0,0,1,0,3.1914,3.2875,3.2875,0,0,1-1.1553,1.169,3.1806,3.1806,0,0,1-3.22,0,3.2589,3.2589,0,0,1-1.1621-1.169A3.0817,3.0817,0,0,1,84.1286,337.9487Zm11.4766,0a3.0778,3.0778,0,0,1,.43-1.6,3.3033,3.3033,0,0,1,1.1621-1.1621,3.1824,3.1824,0,0,1,3.2207,0,3.3162,3.3162,0,0,1,1.1553,1.1621,3.1777,3.1777,0,0,1,0,3.1914,3.2875,3.2875,0,0,1-1.1553,1.169,3.1824,3.1824,0,0,1-3.2207,0,3.2748,3.2748,0,0,1-1.1621-1.169A3.09,3.09,0,0,1,95.6052,337.9487Zm11.4766,0a3.0674,3.0674,0,0,1,.43-1.6,3.3033,3.3033,0,0,1,1.1621-1.1621,3.1824,3.1824,0,0,1,3.2207,0,3.3142,3.3142,0,0,1,1.1543,1.1621,3.1719,3.1719,0,0,1,0,3.1914,3.2856,3.2856,0,0,1-1.1543,1.169,3.1824,3.1824,0,0,1-3.2207,0,3.2748,3.2748,0,0,1-1.1621-1.169A3.08,3.08,0,0,1,107.0818,337.9487Z"/><path class="cls-3" d="M133.2038,324.9224a7.5525,7.5525,0,0,1,4.002,1.0048,6.5463,6.5463,0,0,1,2.5254,2.8184,9.7,9.7,0,0,1,.875,4.2539,9.9628,9.9628,0,0,1-.8828,4.3682,6.3964,6.3964,0,0,1-2.5313,2.8047,7.7155,7.7155,0,0,1-3.9883.9746,7.8074,7.8074,0,0,1-3.9814-.961,6.3032,6.3032,0,0,1-2.5391-2.7832,9.9586,9.9586,0,0,1-.8818-4.375,9.6411,9.6411,0,0,1,.8818-4.2461,6.6685,6.6685,0,0,1,2.5391-2.8408A7.4615,7.4615,0,0,1,133.2038,324.9224Zm0,3.3427a2.22,2.22,0,0,0-2.0586,1.1407,10.266,10.266,0,0,0,0,7.28,2.4369,2.4369,0,0,0,4.1172,0,7.6182,7.6182,0,0,0,.667-3.6865,7.38,7.38,0,0,0-.667-3.6006A2.2247,2.2247,0,0,0,133.2038,328.2651Z"/><path class="cls-3" d="M157.5329,339.77a8.9693,8.9693,0,0,1-2.1523.9756,9.3477,9.3477,0,0,1-2.84.4014,5.2062,5.2062,0,0,1-5.8818-5.6807v-6.9141H143.46v-3.1269h3.1992v-3.3l4.5332-.5449v3.8447h4.9063l-.4444,3.1269h-4.4619v6.9141a2.1524,2.1524,0,0,0,.5166,1.6211,2.3434,2.3434,0,0,0,1.6494.4883,5.2284,5.2284,0,0,0,1.4707-.1944,5.6028,5.6028,0,0,0,1.1983-.4941Z"/><path class="cls-3" d="M165.5661,318.9263v8.0049a6.4319,6.4319,0,0,1,2.087-1.5137,5.869,5.869,0,0,1,2.3886-.4951,3.9789,3.9789,0,0,1,3.1123,1.1914A4.8284,4.8284,0,0,1,174.23,329.47v11.19H169.697v-9.9268a4.2291,4.2291,0,0,0-.3086-1.9228,1.2078,1.2078,0,0,0-1.1543-.545,2.0766,2.0766,0,0,0-.9258.2227,3.5466,3.5466,0,0,0-.8818.6377,8.2829,8.2829,0,0,0-.86.99V340.66h-4.5332V319.3706Z"/><path class="cls-3" d="M182.1775,334.3618a4.8021,4.8021,0,0,0,.6523,2.0156,2.9419,2.9419,0,0,0,1.2695,1.1192,4.1524,4.1524,0,0,0,1.7354.3515,6.0384,6.0384,0,0,0,2.0234-.3447,9.2051,9.2051,0,0,0,1.8789-.918l1.8223,2.4678a8.8833,8.8833,0,0,1-2.6045,1.5059,9.6176,9.6176,0,0,1-3.4785.5879,8.4893,8.4893,0,0,1-4.375-1.04,6.6274,6.6274,0,0,1-2.6543-2.8613,9.4377,9.4377,0,0,1-.89-4.1894,9.5535,9.5535,0,0,1,.8614-4.0948,7.0048,7.0048,0,0,1,2.5176-2.9414,7.1773,7.1773,0,0,1,4.0527-1.0976,7.3778,7.3778,0,0,1,3.7793.9326,6.313,6.313,0,0,1,2.4824,2.6826,9.2518,9.2518,0,0,1,.8818,4.2031q0,.3882-.0214.8321t-.0645.789Zm2.8115-6.3974a2.454,2.454,0,0,0-1.9658.875,4.9155,4.9155,0,0,0-.9034,2.7968h5.5948a5.0465,5.0465,0,0,0-.6455-2.6679A2.2683,2.2683,0,0,0,184.989,327.9644Z"/><path class="cls-3" d="M195.6032,340.66v-3.041h2.0088V328.437h-2.0088v-3.0117h5.4659l.832,3.4277a6.871,6.871,0,0,1,2.0879-2.9258,4.9943,4.9943,0,0,1,3.1055-.9619,6.9956,6.9956,0,0,1,1.3769.1221,6.4532,6.4532,0,0,1,1.1338.3379l-1.3779,3.7441a6.46,6.46,0,0,0-.8321-.1728,6.7745,6.7745,0,0,0-.9179-.0567,3.467,3.467,0,0,0-2.6182,1.2188,8.0118,8.0118,0,0,0-1.7139,3.0986v4.3614h3.0127v3.041Zm10.3145-8.8653v-4.4472l.6748-1.9219h3.0127l-.8467,6.3691Z"/><path class="cls-3" d="M218.7849,337.9058a3.9988,3.9988,0,0,0,1.8291-.3594,1.15,1.15,0,0,0,.6963-1.0752,1.2444,1.2444,0,0,0-.2725-.8184,2.603,2.603,0,0,0-1.0478-.6308q-.7749-.3018-2.295-.7178a11.4068,11.4068,0,0,1-2.46-.9463,4.4757,4.4757,0,0,1-1.6641-1.4775,4.0063,4.0063,0,0,1-.5957-2.252,4.0529,4.0529,0,0,1,.7608-2.4248,5.0066,5.0066,0,0,1,2.2373-1.6709,9.496,9.496,0,0,1,3.6152-.61,10.8615,10.8615,0,0,1,3.5508.5244,9.9706,9.9706,0,0,1,2.6181,1.3261l-1.8076,2.669a9.226,9.226,0,0,0-2.0371-.94,7.1479,7.1479,0,0,0-2.1953-.3506,3.5416,3.5416,0,0,0-1.6426.2939.949.949,0,0,0-.5381.8819.91.91,0,0,0,.28.667,3.1421,3.1421,0,0,0,1.0547.5742q.7734.2944,2.2656.7246a14.8529,14.8529,0,0,1,2.5752.9609,4.245,4.245,0,0,1,1.7,1.4561,4.2917,4.2917,0,0,1,.6026,2.4023,4.0737,4.0737,0,0,1-.99,2.791,5.9892,5.9892,0,0,1-2.625,1.6856,12.0924,12.0924,0,0,1-7.4883-.0723,9.3057,9.3057,0,0,1-2.8828-1.664l2.28-2.5538a8.5542,8.5542,0,0,0,2.0156,1.1485A6.4671,6.4671,0,0,0,218.7849,337.9058Z"/><path class="cls-3" d="M53.1755,350.9019v26.5673H46.4763v-1.6357h5.02V352.58h-5.02v-1.6777Z"/><path class="cls-3" d="M67.2624,369.7515a2.0651,2.0651,0,0,1,1.542.624,2.0355,2.0355,0,0,1,.6094,1.4707,5.4375,5.4375,0,0,1-.0713.8818,3.4641,3.4641,0,0,1-.3154.94l-2.4248,5.58H64.6374L66,373.61a2.19,2.19,0,0,1-.2226-3.2344A1.9988,1.9988,0,0,1,67.2624,369.7515Zm0-9.9414a2.1009,2.1009,0,0,1,1.542.6025,2.0132,2.0132,0,0,1,.6094,1.4922,2.0928,2.0928,0,0,1-.6094,1.5058,2.0525,2.0525,0,0,1-1.542.6309,1.9781,1.9781,0,0,1-1.4922-.6309,2.2134,2.2134,0,0,1-.33-2.582,1.9806,1.9806,0,0,1,.7529-.7461A2.13,2.13,0,0,1,67.2624,359.81Z"/></g></g></svg>